<svg width="600" height="720" viewBox="0 0 600 720" fill="none" xmlns="http://www.w3.org/2000/svg">
<path d="M401.6 82.6664C412.685 92.6328 424 112.533 417.6 142.933C411.2 173.333 407.95 191.054 414.666 206.666C427.8 237.2 548.705 289.602 548 372.8C547.2 467.2 450.8 471.2 426 501.6C407.732 523.994 406 584.8 349.2 620.8C299.706 652.169 201.278 657.213 139.2 603.6C95.1999 565.6 97.3335 519.2 99.4663 499.734C101.599 480.267 119.954 421.162 90.2383 377.732C54.9327 326.133 59.0327 286.462 71.2143 244.197C82.7999 204 114.297 141.15 193.066 97.0664C280.266 48.2664 372.534 56.5336 401.6 82.6664Z" fill="url(#paint0_linear_41_2898)" fill-opacity="0.08"/>
<path d="M381.2 113.801H351.6V143.398H381.2V113.801Z" fill="#C7A0F6"/>
<path d="M122.8 219.6H79.9575C76.2319 228.408 73.3767 236.697 71.2151 244.197C65.1679 265.178 61.1151 285.521 62.8831 307H122.8V219.6Z" fill="url(#paint1_linear_41_2898)"/>
<path d="M371.321 113.801H361.48V123.641H371.321V113.801Z" fill="#FDE1A7"/>
<path d="M371.321 133.559H361.48V143.399H371.321V133.559Z" fill="#FF57BC"/>
<path d="M361.441 123.68H351.6V133.52H361.441V123.68Z" fill="#FF9BBB"/>
<path d="M381.2 123.68H371.359V133.52H381.2V123.68Z" fill="#1AA9E8"/>
<path d="M394.934 207.6V164.8C394.934 164.358 394.576 164 394.134 164H388.8C388.358 164 388 164.358 388 164.8V207.6H394.934Z" fill="#05C5DA"/>
<path d="M388 207.6V160.8C388 158.15 385.85 156 383.2 156H378.4C375.75 156 373.6 158.15 373.6 160.8V207.6H388Z" fill="#FDE1A7"/>
<path d="M388 165.866H373.6V170.4H388V165.866Z" fill="#C7A0F6"/>
<path d="M354.502 207.066H369.113L354.586 151.654C354.25 150.371 352.938 149.604 351.656 149.94L342.629 152.306C341.345 152.642 340.579 153.954 340.915 155.237L354.502 207.066Z" fill="#1AA9E8"/>
<path d="M354.502 207.066L339.427 149.562C339.314 149.135 338.877 148.879 338.45 148.992L329.937 151.224C329.509 151.336 329.254 151.774 329.366 152.201L343.749 207.067H354.502V207.066Z" fill="#FF9BBB"/>
<path d="M358.015 164.738L344.344 168.322L350.059 190.118L363.729 186.534L358.015 164.738Z" fill="#0090B2"/>
<path d="M103.6 249.6C95.5993 252.439 83.8001 253.6 78.4001 264.4C72.6297 275.941 79.6001 281.3 80.0001 288C80.3505 293.867 76.1729 298.523 71.1841 301.2H116.6V241.28C113.962 244.122 110.19 247.262 103.6 249.6Z" fill="url(#paint2_linear_41_2898)"/>
<path opacity="0.3" d="M314.134 494.134C336.518 494.967 400.2 500.8 395.734 530.934C391.83 557.274 356.467 564.376 323.2 568.267C287.683 572.422 276.2 569.4 253.334 585.867C231.359 601.692 211.6 612.8 178.134 597.6C153.13 586.244 154.039 557.035 158.6 551.4C171.334 535.666 189.473 537.333 200.534 532.534C209.6 528.6 225.122 509.99 245.334 502.134C265.545 494.278 300.874 493.64 314.134 494.134Z" fill="url(#paint3_linear_41_2898)"/>
<path d="M329.066 207.8V61.7856C327.395 61.7456 325.705 61.7272 324 61.7256V207.8H329.066Z" fill="url(#paint4_linear_41_2898)"/>
<path d="M97.0999 242.5C102.9 239.4 92.2999 229.4 102.2 225.4H77.5999C76.1415 229.132 74.8383 232.756 73.6807 236.246C74.4639 235.908 75.2951 235.67 76.1999 235.6C85.2999 234.9 86.7655 248.024 97.0999 242.5Z" fill="#1AA9E8"/>
<path d="M318.333 87.4664V87.7328H406.461C404.873 85.8288 403.235 84.136 401.6 82.6664H323.133C320.483 82.6664 318.333 84.816 318.333 87.4664Z" fill="url(#paint5_linear_41_2898)"/>
<path d="M318.333 145.2V145.466H417.068C417.243 144.631 417.42 143.789 417.6 142.934C417.78 142.08 417.941 141.237 418.093 140.4H323.133C320.483 140.4 318.333 142.55 318.333 145.2Z" fill="url(#paint6_linear_41_2898)"/>
<path d="M318.333 210.334V210.6H416.868C415.963 209.251 415.214 207.938 414.666 206.666C414.505 206.29 414.354 205.912 414.203 205.533H323.133C320.483 205.534 318.333 207.683 318.333 210.334Z" fill="url(#paint7_linear_41_2898)"/>
<path d="M79.9999 288C79.5999 281.3 72.6295 275.941 78.3999 264.4C83.7999 253.6 95.5991 252.439 103.6 249.6C110.19 247.262 113.962 244.122 116.6 241.28V225.4H102.2C92.2999 229.4 102.9 239.4 97.0999 242.5C86.7655 248.024 85.2999 234.9 76.1999 235.6C75.2943 235.67 74.4631 235.908 73.6807 236.246C72.7735 238.98 71.9535 241.635 71.2151 244.196C65.7151 263.28 61.8639 281.836 62.5423 301.199H71.1839C76.1727 298.523 80.3503 293.867 79.9999 288Z" fill="url(#paint8_linear_41_2898)"/>
<path d="M96.7997 283.734C101.513 283.734 105.333 279.913 105.333 275.2C105.333 270.487 101.513 266.667 96.7997 266.667C92.0867 266.667 88.2661 270.487 88.2661 275.2C88.2661 279.913 92.0867 283.734 96.7997 283.734Z" fill="url(#paint9_linear_41_2898)"/>
<path d="M103 548.318C108.108 566.168 118.596 585.805 139.2 603.6C143.458 607.277 147.891 610.668 152.463 613.803L163.872 548.318H103V548.318Z" fill="url(#paint10_linear_41_2898)"/>
<path d="M163.947 549.622C163.947 538.88 148.754 530.176 130.013 530.176C117.64 530.176 106.818 533.97 100.888 539.638C102.514 547.698 105.155 556.285 109.3 565.021C115.032 567.555 122.212 569.066 130.013 569.066C148.754 569.067 163.947 560.365 163.947 549.622Z" fill="#FF9BBB"/>
<path d="M157.466 548.735C157.466 540.3 145.078 533.467 129.801 533.467C115.982 533.467 104.532 539.055 102.467 546.363C103.318 549.55 104.339 552.799 105.553 556.09C110.261 560.806 119.353 564.001 129.801 564.001C145.078 564.001 157.466 557.169 157.466 548.735Z" fill="url(#paint11_linear_41_2898)"/>
<path d="M115.421 399.677C114.385 401.899 115.929 404.082 118.84 405.274C122.147 406.628 124.662 406.4 125.785 409.382C126.909 412.364 126.102 415.792 128.081 415.77C130.06 415.75 133.355 407.588 129.702 401.609C126.02 395.578 117.787 394.601 115.421 399.677Z" fill="url(#paint12_linear_41_2898)"/>
<path d="M134.4 518.9C136 514.5 152.3 491.5 180.9 489.3C206.735 487.313 216.942 499.166 214.4 504.4C212.7 507.9 206.6 506.9 204.1 506.2C201.6 505.5 197.214 502.993 194.3 504.5C191.4 506 191.746 509.84 188.8 511.3C183.519 513.918 178.083 509.544 173.6 507.8C168.2 505.7 159.1 503.8 152.6 509.8C144.642 517.146 142.978 523.497 140.489 534.649C137.999 545.801 136.822 551.317 136.3 552C135.65 552.85 134.6 553.8 131.8 552.7C129 551.6 132.6 537.3 132.3 531.5C132 525.7 134.4 518.9 134.4 518.9Z" fill="url(#paint13_linear_41_2898)"/>
<path d="M141 552.2C141.025 551.174 144.6 544.467 145.3 538.1C146.212 529.802 150.352 521.058 154.1 517.7C158.6 513.667 164.401 511.725 166.9 514.8C169.066 517.467 166.933 522.334 164.4 524.8C161.157 527.956 146.285 536.674 148.866 541.467C150.266 544.067 152.821 540.225 154 538.401C156.066 535.201 159.553 532.057 161.733 533.467C164 534.934 163.267 539.467 158.333 542.334C153.505 545.139 149.21 547.461 147.133 549.801C145.169 552.014 147.067 551.934 146 553.201C144.772 554.659 140.933 554.934 141 552.2Z" fill="url(#paint14_linear_41_2898)"/>
<path d="M120 552.1C121.309 551.322 120.1 544.3 117.6 540.8C115.1 537.3 110.4 535.6 110.4 533.1C110.4 530.6 111.637 528.396 110.2 525.3C108.9 522.5 103.8 523.6 103.6 519.1C103.4 514.6 105.688 509.053 107.437 499.257C109 490.5 107.576 487.482 105.3 486.1C102.5 484.4 101.9 480.3 104 474.5C105.462 470.462 104.632 445.046 95.6998 444.4C88.0998 443.85 84.9678 457.389 84.8998 464.3C84.7998 474.45 88.7166 476.975 87.1998 482.2C85.3998 488.4 82.9334 489.266 82.3998 496.1C81.9606 501.73 81.9998 509.4 93.7998 523.8C104.966 537.427 112.319 543.278 114.3 546.1C116.733 549.567 117.7 553.467 120 552.1Z" fill="url(#paint15_linear_41_2898)"/>
<path d="M129.8 551.6C129.8 546.6 132 530.4 127.4 521.8C122.8 513.2 120.2 504.4 122.4 494.8C124.6 485.2 135.4 466.7 134.6 460.3C133.8 453.9 130.5 443.1 136.4 422.2C140.868 406.374 151.007 395.63 158 400C162.8 403 160.6 414.2 158.2 418.4C155.8 422.6 151.629 429.929 152.429 434.129C153.229 438.329 155.862 438.786 155.639 444.487C155.201 455.7 139.501 472.9 135.801 488.2C132.73 500.895 131.601 516.2 134.801 516.8C138.001 517.4 134.584 547.518 133.092 550.61C131.6 553.701 129.8 551.6 129.8 551.6Z" fill="url(#paint16_linear_41_2898)"/>
<path d="M120.133 417.734C123.133 419.734 123.467 424.534 122.267 427.867C121.067 431.201 119.962 432.738 120.267 434.934C120.601 437.334 125.201 438.134 126.667 443.067C128.133 448.001 125.733 457.866 123.201 464.934C120.668 472.001 121.334 477.201 123.867 477.601C126.4 478.001 128.667 474.534 129.467 470.267C130.267 466.001 129.885 447.207 141.201 450.534C145.734 451.866 145.401 459.533 142.534 464.934C140.324 469.098 132.868 478.2 129.068 490.534C125.553 501.943 122.787 510.997 129.734 512.401C135.668 513.6 138.934 506.934 139.734 502.667C140.534 498.401 143.252 483.724 156.401 486.267C162.601 487.466 158.729 502.522 149.601 510.401C143.377 515.773 135.472 522.462 133.201 531.734C130.734 541.8 134.267 552.134 132.801 554.134C131.334 556.134 125.601 554.934 125.734 553.601C125.868 552.267 127.334 549.6 124.534 547.334C121.734 545.067 115.222 541.932 110.801 538.801C106.379 535.67 106.801 530.801 109.067 529.067C111.333 527.334 113.951 529.516 114.933 530.667C116.867 532.934 121.333 546.701 126.667 543.067C130.061 540.754 124.625 529.426 120.801 524.267C115.067 516.533 102.201 513.6 94.9342 503.867C89.8118 497.006 92.8214 489.312 96.2678 488.001C101.001 486.2 105.34 490.487 106.285 494.818C107.552 500.616 110.106 509.832 116.934 504.668C124.868 498.667 112.924 487.366 107.068 480.935C96.2014 469.001 91.0014 450.267 100.401 447.335C104.586 446.03 108.068 451.867 109.068 458.535C110.216 466.186 115.843 490.672 120.801 487.868C123.868 486.134 117.068 480.269 116.801 475.335C116.535 470.402 117.201 463.334 114.801 457.068C112.401 450.802 106.099 434.218 109.468 424.402C112.533 415.466 118.798 416.845 120.133 417.734Z" fill="url(#paint17_linear_41_2898)"/>
<path d="M186.25 517.05C189.001 518.35 188.05 522.501 183.015 526.186C178.251 529.671 171.419 529.808 171.25 527.978C171.082 526.146 174.917 526.036 178.05 523.05C181.184 520.063 182.589 515.319 186.25 517.05Z" fill="url(#paint18_linear_41_2898)"/>
<path d="M484.786 238.814L481.066 238.826V332.533H487.466C490.117 332.533 492.266 330.384 492.266 327.733V245.3C492.266 242 490.2 238.814 484.786 238.814Z" fill="#9180E6"/>
<path d="M422.8 355C433.8 345.201 428 332.534 426.4 330.8H401.099C402.699 332.534 408.499 345.201 397.499 355H422.8Z" fill="url(#paint19_linear_41_2898)"/>
<path d="M423.784 356.435L421.735 353.806C425.495 350.456 427.515 346.438 427.739 341.863C427.991 336.697 425.827 332.54 425.223 331.886L427.575 329.715C428.887 331.136 431.219 336.204 430.934 342.019C430.672 347.406 428.148 352.549 423.784 356.435Z" fill="#9180E6"/>
<path d="M423.767 356.412C423.767 356.412 423.15 353.9 422.574 352.994H379.035C376.385 352.994 374.235 355.143 374.235 357.794V358.06H423.767V356.412Z" fill="#9180E6"/>
<path d="M333.066 327.734C333.066 330.385 335.216 332.534 337.866 332.534H484.266C486.917 332.534 489.066 330.385 489.066 327.734V243.466C489.066 240.816 486.917 238.666 484.266 238.666L337.866 244.666C335.216 244.666 333.066 246.816 333.066 249.466V327.734V327.734Z" fill="url(#paint20_linear_41_2898)"/>
<path d="M339.2 320.8L480.534 318.4V246.666L339.2 252.666V320.8Z" fill="#131D31"/>
<path d="M472.368 258.471C472.426 260.041 471.041 261.366 469.275 261.431L390.138 264.444C388.372 264.51 386.893 263.289 386.835 261.719L386.77 259.942C386.712 258.373 388.097 257.047 389.863 256.982L469 253.969C470.767 253.904 472.245 255.124 472.303 256.694L472.368 258.471Z" fill="url(#paint21_linear_41_2898)"/>
<path d="M447.8 305C447.8 305.883 447.083 306.6 446.2 306.6L376 307.8C375.117 307.8 374.4 307.083 374.4 306.2V274.6C374.4 273.717 375.117 273 376 273L446.2 271.8C447.083 271.8 447.8 272.517 447.8 273.4V305Z" fill="#FF9BBB"/>
<path d="M351.74 265.39C353.802 265.39 355.474 263.719 355.474 261.657C355.474 259.595 353.802 257.923 351.74 257.923C349.678 257.923 348.006 259.595 348.006 261.657C348.006 263.719 349.678 265.39 351.74 265.39Z" fill="#FBBB6C"/>
<path d="M364.297 265.11C366.359 265.11 368.03 263.439 368.03 261.377C368.03 259.315 366.359 257.643 364.297 257.643C362.235 257.643 360.563 259.315 360.563 261.377C360.563 263.439 362.235 265.11 364.297 265.11Z" fill="#5265F9"/>
<path d="M376.854 264.83C378.916 264.83 380.587 263.159 380.587 261.097C380.587 259.035 378.916 257.363 376.854 257.363C374.792 257.363 373.12 259.035 373.12 261.097C373.12 263.159 374.792 264.83 376.854 264.83Z" fill="#EA4D81"/>
<path d="M438.864 281.162C427.8 281 388.8 282 375.6 280.4C362.4 278.8 347.217 273.154 341.8 268.6C341.397 268.262 341.06 267.937 340.765 267.618C341.734 271.067 343.1 274.2 342.134 279.2C341.365 283.178 337.356 288.847 331.873 291.228C334.222 292.314 336.717 293.373 339.2 294.266C349.2 297.866 369.207 299.733 382.534 299.733C395.861 299.733 439.067 299.733 439.067 299.733L438.864 281.162Z" fill="url(#paint22_linear_41_2898)"/>
<path d="M438.864 281.162C435.56 281.114 429.756 281.169 422.902 281.228C424.6 282.7 429.3 290.166 423.4 299.733C432.351 299.733 439.067 299.733 439.067 299.733L438.864 281.162Z" fill="#FFFAFF"/>
<path d="M342.134 279.2C343.1 274.2 341.734 271.066 340.765 267.618C338.909 265.611 338.857 263.823 336.7 260.2C334.445 256.41 333.261 253.106 333.066 251C332.666 246.666 335.322 243.17 334.989 240.37C334.671 237.702 327.697 236.671 325.4 240.6C323.334 244.134 324.39 249.415 324.7 251.3C325.134 253.934 324.8 255 324.8 255C324.8 255 318.2 263.3 317.9 270C317.6 276.7 319 284.4 319 284.4C319 284.4 324.763 287.941 331.873 291.228C337.356 288.847 341.365 283.178 342.134 279.2Z" fill="url(#paint23_linear_41_2898)"/>
<path d="M313.7 266.35C313.3 265.55 311.45 259.95 315.251 257.1C318.859 254.394 323.463 253.967 326.001 255.8C327.923 257.189 330.93 259.792 331.001 263.5C331.051 266.1 329.051 268.4 329.051 268.4C329.051 268.4 330.901 270.4 330.801 272.9C330.681 275.899 328.701 277.7 328.701 277.7C328.701 277.7 329.751 283.05 326.751 284.2C324.323 285.13 322.5 283.65 320.9 283.7C319.497 283.744 319.574 284.745 319.574 284.745C319.574 284.745 316.242 284.936 315.2 283.2C313.85 280.95 314.9 277.6 314.9 277.6C314.9 277.6 312.511 274.298 312.4 270.8C312.3 267.65 313.7 266.35 313.7 266.35Z" fill="url(#paint24_linear_41_2898)"/>
<path d="M326.75 284.2C329.75 283.05 328.701 277.7 328.701 277.7C328.701 277.7 330.681 275.899 330.801 272.9C330.901 270.4 329.05 268.4 329.05 268.4C329.05 268.4 331.05 266.1 331.001 263.5C330.93 259.792 327.923 257.189 326.001 255.8C324.974 255.058 323.606 254.693 322.104 254.693C323.203 256.006 324.3 258.552 323.751 260.95C323.003 264.212 320.201 264.635 320.201 264.635C320.201 264.635 322.501 266.5 322.301 269.9C322.101 273.3 320 274.666 320 274.666C320 274.666 322.801 276.3 322.501 279.2C322.201 282.1 320.086 283.891 320.086 283.891V283.892C320.278 283.787 320.538 283.71 320.901 283.699C322.5 283.65 324.322 285.13 326.75 284.2Z" fill="#FFFAFF"/>
<path d="M333.064 250.949C332.69 246.639 335.321 243.16 334.989 240.371C334.671 237.703 327.697 236.672 325.4 240.601C323.35 244.106 324.373 249.327 324.691 251.251C325.986 252.251 327.896 253.084 329.667 253.134C330.989 253.171 332.258 251.94 333.064 250.949Z" fill="#FFFAFF"/>
<path d="M355.285 285.674C355.79 280.987 354.272 276.685 352.816 274.491C348.015 272.586 344.058 270.498 341.799 268.6C341.396 268.262 341.059 267.937 340.764 267.618C341.733 271.067 343.099 274.2 342.133 279.2C341.364 283.178 337.355 288.847 331.872 291.228C334.221 292.314 336.716 293.373 339.199 294.266C341.914 295.244 345.37 296.092 349.225 296.811C350.254 295.87 354.653 291.53 355.285 285.674Z" fill="#FFFAFF"/>
<path d="M423.4 300.334C423.292 300.334 423.184 300.305 423.085 300.244C422.803 300.07 422.716 299.701 422.889 299.418C428.64 290.094 423.972 282.95 422.508 281.682C422.258 281.465 422.231 281.086 422.448 280.835C422.666 280.585 423.045 280.558 423.295 280.774C424.911 282.176 430.102 290.01 423.911 300.048C423.798 300.232 423.601 300.334 423.4 300.334Z" fill="#FA541C"/>
<path d="M329.5 269.075C329.327 269.075 329.156 269.001 329.038 268.858C327.674 267.206 323.165 265.366 321.163 265.13C319.353 264.919 316.999 265.495 313.951 266.896C313.65 267.034 313.294 266.903 313.155 266.602C313.016 266.301 313.148 265.944 313.449 265.806C316.703 264.309 319.268 263.698 321.303 263.938C323.59 264.208 328.379 266.178 329.962 268.094C330.173 268.349 330.137 268.727 329.881 268.938C329.771 269.03 329.635 269.075 329.5 269.075Z" fill="#FA541C"/>
<path d="M328.975 278.625C328.73 278.625 328.501 278.474 328.412 278.232C327.987 277.075 324.554 275.33 321.626 275.132C318.615 274.932 315.3 278.2 315.267 278.233C315.034 278.467 314.654 278.468 314.418 278.234C314.184 277.999 314.184 277.619 314.418 277.385C314.569 277.234 318.151 273.692 321.707 273.934C324.682 274.136 328.838 275.913 329.538 277.818C329.653 278.129 329.493 278.474 329.182 278.588C329.114 278.614 329.044 278.625 328.975 278.625Z" fill="#FA541C"/>
<path d="M340.198 295.209C339.981 295.209 339.771 295.091 339.665 294.885C339.513 294.591 339.627 294.229 339.921 294.076C339.982 294.044 346.107 290.784 347.917 283.358C348.93 279.199 348.063 274.81 346.754 272.304C346.602 272.01 346.715 271.648 347.009 271.494C347.303 271.342 347.665 271.455 347.818 271.749C349.127 274.255 350.244 278.874 349.082 283.642C347.14 291.616 340.743 295.002 340.472 295.142C340.384 295.187 340.29 295.209 340.198 295.209Z" fill="#FA541C"/>
<path d="M444.6 311.762C453.289 311.762 460.333 304.718 460.333 296.029C460.333 287.34 453.289 280.296 444.6 280.296C435.911 280.296 428.867 287.34 428.867 296.029C428.867 304.718 435.911 311.762 444.6 311.762Z" fill="#FA541C"/>
<path d="M453.856 287.473C452.935 286.832 451.668 287.059 451.027 287.981L443.52 298.77L435.195 291.635C434.615 291.138 433.744 291.111 433.132 291.611C432.446 292.173 432.344 293.185 432.906 293.872L442.015 305.009C442.224 305.262 442.489 305.49 442.795 305.659C444.095 306.379 445.734 305.909 446.454 304.609L446.503 304.52L454.475 290.126C454.968 289.227 454.718 288.073 453.856 287.473Z" fill="white"/>
<path d="M516.333 329.511C510.995 329.511 506.667 333.33 506.667 338.045C506.667 342.759 510.995 346.578 516.333 346.578C521.672 346.578 526 342.759 526 338.045C526 333.33 521.672 329.511 516.333 329.511ZM515.783 341.778C513.721 341.778 512.049 340.107 512.049 338.045C512.049 335.982 513.721 334.311 515.783 334.311C517.845 334.311 519.517 335.982 519.517 338.045C519.517 340.107 517.845 341.778 515.783 341.778Z" fill="url(#paint25_linear_41_2898)"/>
<path d="M510.967 357.2H488.934L482.934 322.759H516.967L510.967 357.2Z" fill="url(#paint26_linear_41_2898)"/>
<path d="M499.97 331.866C509.378 331.866 517.006 327.789 517.006 322.759C517.006 317.729 509.378 313.652 499.97 313.652C490.561 313.652 482.934 317.729 482.934 322.759C482.934 327.789 490.561 331.866 499.97 331.866Z" fill="#FF9BBB"/>
<path d="M499.97 327.866C506.899 327.866 512.516 325.285 512.516 322.1C512.516 318.915 506.899 316.334 499.97 316.334C493.041 316.334 487.423 318.915 487.423 322.1C487.423 325.285 493.041 327.866 499.97 327.866Z" fill="url(#paint27_linear_41_2898)"/>
<path d="M503.801 320.866C503.833 319.666 500.066 319.066 500.933 315.666C501.801 312.266 505.733 310.133 511.401 308.8C516.013 307.715 521.752 306.064 521.933 301.266C522.067 297.733 518.867 297.133 516.867 296.733C514.867 296.333 512.533 295.133 513.133 293.066C513.733 291 516.009 287.258 513.009 285.125C509.211 282.425 498.2 282.666 495.133 289.933C492.067 297.199 499.266 298.333 500.733 298.733C502.201 299.133 505.357 299.977 504.001 302.866C502.467 306.133 493.984 310.066 493.867 315.6C493.733 321.9 503.721 323.79 503.801 320.866Z" fill="url(#paint28_linear_41_2898)"/>
<path d="M482.667 279.8C485.1 280.1 486.133 282.566 485.6 285.666C484.995 289.188 483.468 291.2 485.4 293.733C487.333 296.266 490.668 297.399 489.6 299.066C488.533 300.734 479.867 299.2 476.733 292.933C473.573 286.613 477.109 279.115 482.667 279.8Z" fill="url(#paint29_linear_41_2898)"/>
<path d="M475.017 302C476.692 302.825 478.041 305.7 479.817 306.05C481.059 306.295 482.795 306.45 482.767 307.901C482.742 309.176 480.517 309.901 476.842 309.626C473.283 309.359 470.098 306.338 471.267 303.526C472.067 301.6 474.283 301.638 475.017 302Z" fill="url(#paint30_linear_41_2898)"/>
<path d="M547.167 360.266H445.467V369.733C445.467 376.36 450.84 381.733 457.467 381.733H547.619C547.841 378.846 547.974 375.874 548 372.799C548.036 368.541 547.738 364.366 547.167 360.266Z" fill="url(#paint31_linear_41_2898)"/>
<path d="M486.4 376.534C488.462 376.534 490.134 374.862 490.134 372.8C490.134 370.738 488.462 369.066 486.4 369.066C484.338 369.066 482.667 370.738 482.667 372.8C482.667 374.862 484.338 376.534 486.4 376.534Z" fill="#5265F9"/>
<path d="M526.134 382.334C525.802 382.334 525.534 382.065 525.534 381.734V363.96C525.534 363.629 525.802 363.36 526.134 363.36C526.465 363.36 526.734 363.629 526.734 363.96V381.734C526.734 382.065 526.465 382.334 526.134 382.334Z" fill="#FFA2BA"/>
<path d="M353.833 356.4V363.961H547.598C547.355 361.41 547 358.89 546.539 356.4H353.833Z" fill="url(#paint32_linear_41_2898)"/>
<path d="M254.3 455.1C254.477 463.201 254.134 518.399 253.466 526.266C256.01 529.446 260.533 526 260.533 526C260.533 526 264.199 511 265.866 490.666C267.309 473.075 267.733 455.6 267.733 455.6L254.3 455.1Z" fill="url(#paint33_linear_41_2898)"/>
<path d="M256.894 493.194C255.522 493.194 254.432 493.102 253.97 492.972C253.545 492.852 253.297 492.41 253.417 491.985C253.537 491.56 253.98 491.313 254.404 491.432C255.604 491.772 262.887 491.733 265.416 490.006C265.782 489.759 266.279 489.852 266.528 490.217C266.778 490.582 266.683 491.079 266.319 491.329C264.225 492.756 259.887 493.194 256.894 493.194Z" fill="#7B7BEF"/>
<path d="M185.6 334.4C177.976 335.434 152.31 343.888 149.225 361.489C149.126 362.05 150.12 363.446 150.3 364C156.5 383.1 184.5 408.8 195.2 410.6C195.672 410.68 196.344 411.179 196.817 410.995C204.193 408.14 211.873 393.974 218.2 389.4C220.95 387.412 185.6 334.4 185.6 334.4Z" fill="url(#paint34_linear_41_2898)"/>
<path d="M152.187 353.889C150.46 356.674 149.302 359.772 149 363.2C147.6 379.067 184.32 413.388 195.4 411.4C196.65 411.176 197.913 410.58 199.179 409.722C176.275 400.77 155.485 367.353 152.187 353.889Z" fill="url(#paint35_linear_41_2898)"/>
<path d="M252.2 424.4C259.4 424.386 295.819 425.058 302 428.8C307.066 431.867 308.161 436.954 305.141 441.754C302.12 446.554 287.8 455.5 259 455.7C230.2 455.9 211.8 449.8 211.6 442.8C211.4 435.8 214.656 425.33 232.4 423.6C243.333 422.534 248.2 424.408 252.2 424.4Z" fill="url(#paint36_linear_41_2898)"/>
<path d="M259.6 458.6C288.4 458.4 302.119 446.554 305.141 441.754C306.466 439.648 306.999 437.487 306.752 435.466C298.994 440.876 281.759 446.392 258.801 447.334C236.251 448.258 217.419 444.862 211.6 442.735C211.6 442.756 211.6 442.779 211.601 442.8C211.8 449.8 230.8 458.8 259.6 458.6Z" fill="url(#paint37_linear_41_2898)"/>
<path d="M194.084 566.834C196.266 560.534 209.9 537.6 238 527.467C264.498 517.912 285.421 525.962 290.844 530.048C296.266 534.134 287.344 541.434 282.79 537.754C277.9 533.801 265.1 529.901 250.306 533.998C230.867 539.382 213.3 555.601 213.185 567.796C199.6 576.134 194.084 566.834 194.084 566.834Z" fill="url(#paint38_linear_41_2898)"/>
<path d="M250.106 531.221C232.99 535.694 209.957 548.141 206.383 570.802C208.379 570.3 210.64 569.357 213.185 567.795C213.3 555.6 230.866 539.382 250.306 533.998C265.1 529.9 277.9 533.8 282.79 537.753C284.557 539.182 286.98 538.952 288.97 537.903C280.444 528.802 266.709 526.883 250.106 531.221Z" fill="#665EDB"/>
<path d="M203.466 580.8C209.063 580.8 213.6 576.263 213.6 570.666C213.6 565.07 209.063 560.533 203.466 560.533C197.869 560.533 193.333 565.07 193.333 570.666C193.333 576.263 197.869 580.8 203.466 580.8Z" fill="url(#paint39_linear_41_2898)"/>
<path d="M290.844 546.191C295.302 546.191 298.916 542.577 298.916 538.119C298.916 533.661 295.302 530.047 290.844 530.047C286.386 530.047 282.772 533.661 282.772 538.119C282.772 542.577 286.386 546.191 290.844 546.191Z" fill="url(#paint40_linear_41_2898)"/>
<path d="M203.466 573.8C201.738 573.8 200.333 572.394 200.333 570.666C200.333 568.938 201.738 567.533 203.466 567.533C205.194 567.533 206.6 568.938 206.6 570.666C206.6 572.394 205.194 573.8 203.466 573.8ZM203.466 568.733C202.4 568.733 201.533 569.6 201.533 570.666C201.533 571.733 202.4 572.6 203.466 572.6C204.533 572.6 205.4 571.733 205.4 570.666C205.4 569.6 204.533 568.733 203.466 568.733Z" fill="#7B7BEF"/>
<path d="M290.844 541.253C289.116 541.253 287.71 539.847 287.71 538.119C287.71 536.391 289.116 534.986 290.844 534.986C292.572 534.986 293.978 536.391 293.978 538.119C293.978 539.847 292.572 541.253 290.844 541.253ZM290.844 536.186C289.778 536.186 288.91 537.053 288.91 538.119C288.91 539.186 289.778 540.053 290.844 540.053C291.91 540.053 292.778 539.186 292.778 538.119C292.778 537.053 291.91 536.186 290.844 536.186Z" fill="#7B7BEF"/>
<path d="M210.887 266.966C211.266 272.067 209.866 293.334 202.466 303.734C205.09 309.65 219.215 310.145 224 309.734C234.866 308.8 242.534 302.8 242.534 302.8C242.534 302.8 238.4 280.934 233.734 273.6C230.124 272.452 225.267 271.934 220.734 270.466C216.2 268.999 210.887 266.966 210.887 266.966Z" fill="url(#paint41_linear_41_2898)"/>
<path d="M240.133 241.866C234.393 232.214 225.895 225.033 224.533 223.6C224.533 223.6 199.833 218.928 193.067 237.734C189.133 248.667 200.933 260.8 200.933 260.8C200.933 260.8 202.013 261.21 203.653 262.067C202.453 263.082 201.689 264.598 201.689 266.293C201.689 269.349 204.166 271.826 207.222 271.826C209.561 271.826 211.556 270.374 212.365 268.325C212.459 268.416 212.554 268.501 212.647 268.594C216.666 272.601 232.037 280.707 241.085 272.402C248.933 265.2 245.069 250.168 240.133 241.866Z" fill="url(#paint42_linear_41_2898)"/>
<path d="M238.133 201C235.132 198.998 228.733 202.6 225.333 206.066C221.933 209.533 217.266 212.133 216 210.733C214.733 209.333 217.976 207.864 216.466 205.933C214.8 203.799 205.6 206.466 201.4 213.666C197.2 220.866 193.867 230.533 190.333 231.6C186.8 232.667 187.8 227.134 184.133 227C180.467 226.866 175.8 231.6 174.667 235.334C172.983 240.882 174.601 244.867 177.201 245.067C181.881 245.427 184.601 238.201 187.867 239.867C190.099 241.006 188.601 245.8 187.401 249.934C186.201 254.067 187.734 259.6 192.534 263.4C196.125 266.242 199.559 266.837 201.719 266.866C201.7 266.678 201.689 266.486 201.689 266.292C201.689 263.357 203.976 260.962 206.865 260.776C207.215 259.374 207.298 257.906 206.801 256.599C205.201 252.399 193.961 243.234 196.067 238.466C197.333 235.599 200.733 235.532 206.867 235.332C213.001 235.132 216.774 235.655 217.401 233.266C218.134 230.466 212.627 231.492 213.001 229.999C213.601 227.599 223.709 229.508 232.334 220.399C240.666 211.6 241.133 203 238.133 201Z" fill="url(#paint43_linear_41_2898)"/>
<path d="M226.6 260.534C226.6 260.534 230.733 260.2 233 259.934C235.266 259.667 240.933 259.267 240.933 259.267C240.933 259.267 238.933 265.534 234.333 266.067C229.733 266.601 226.6 260.534 226.6 260.534Z" fill="white"/>
<path d="M215.39 251.085C215.25 251.085 215.115 251.011 215.041 250.881C214.041 249.105 214.266 247.014 215.6 245.68C216.798 244.482 218.653 244.17 220.328 244.889C220.531 244.976 220.625 245.211 220.538 245.414C220.451 245.617 220.214 245.711 220.013 245.624C218.641 245.035 217.131 245.28 216.165 246.246C215.088 247.323 214.917 249.029 215.738 250.489C215.847 250.682 215.778 250.925 215.586 251.034C215.524 251.069 215.457 251.085 215.39 251.085Z" fill="#212F66"/>
<path d="M230.953 239.099C230.773 239.099 230.611 238.978 230.565 238.797C230.234 237.484 230.512 236.263 231.326 235.449C232.285 234.49 233.825 234.284 235.345 234.911C235.549 234.995 235.647 235.229 235.563 235.434C235.479 235.638 235.246 235.734 235.041 235.651C233.824 235.15 232.617 235.29 231.891 236.015C231.281 236.626 231.08 237.569 231.341 238.602C231.394 238.817 231.265 239.034 231.05 239.088C231.018 239.095 230.985 239.099 230.953 239.099Z" fill="#212F66"/>
<path d="M214.866 144.695C215.033 145.33 215.098 145.74 215.165 146.18C215.231 146.609 215.269 147.021 215.309 147.43C215.375 148.246 215.409 149.047 215.41 149.848C215.407 151.448 215.338 153.037 215.263 154.623C215.108 157.795 214.811 160.961 214.61 164.12C214.352 167.282 214.23 170.434 214.194 173.582C214.182 174.369 214.187 175.155 214.214 175.94C214.225 176.726 214.267 177.51 214.314 178.294C214.358 179.077 214.429 179.86 214.514 180.638C214.602 181.402 214.705 182.23 214.872 182.902C215.106 183.843 214.533 184.797 213.591 185.031C212.65 185.266 211.695 184.692 211.461 183.75C211.42 183.585 211.404 183.419 211.41 183.258L211.412 183.23C211.45 182.334 211.486 181.592 211.494 180.786C211.502 179.994 211.501 179.206 211.474 178.42C211.45 177.634 211.424 176.847 211.366 176.062C211.326 175.278 211.263 174.493 211.184 173.71C210.88 170.575 210.492 167.446 209.956 164.326L208.406 154.981C208.166 153.428 207.923 151.878 207.721 150.34C207.621 149.572 207.548 148.805 207.489 148.055C207.465 147.68 207.436 147.309 207.424 146.956C207.408 146.615 207.395 146.242 207.417 146.104L207.577 145.07C207.892 143.036 209.797 141.642 211.832 141.957C213.342 142.192 214.5 143.306 214.866 144.695Z" fill="url(#paint44_linear_41_2898)"/>
<path d="M188.336 162.445C188.46 163.031 188.797 164.062 189.125 165.027L190.205 168.056C190.946 170.11 191.748 172.177 192.407 174.321L193.463 177.518C193.841 178.573 194.246 179.618 194.699 180.634C195.144 181.656 195.614 182.665 196.134 183.632C196.394 184.114 196.649 184.599 196.931 185.05C197.211 185.492 197.509 185.955 197.784 186.254L197.795 186.266C198.322 186.837 198.287 187.729 197.715 188.256C197.143 188.784 196.252 188.748 195.725 188.176C195.717 188.169 195.706 188.156 195.7 188.148C195.223 187.603 194.881 187.131 194.534 186.635C194.193 186.146 193.857 185.668 193.537 185.182L191.645 182.28C191.029 181.31 190.393 180.35 189.753 179.39C189.102 178.436 188.45 177.479 187.826 176.506C186.545 174.572 185.485 172.523 184.504 170.403C184.016 169.34 183.562 168.254 183.157 167.11C182.953 166.536 182.764 165.947 182.597 165.314C182.51 164.999 182.437 164.67 182.366 164.313C182.33 164.135 182.3 163.95 182.272 163.745L182.226 163.37L182.213 163.158C182.107 161.458 183.399 159.992 185.1 159.886C186.648 159.79 188 160.853 188.31 162.326L188.336 162.445Z" fill="url(#paint45_linear_41_2898)"/>
<path d="M237.01 154.074L236.371 157.622C236.137 158.823 235.892 160.027 235.62 161.23C235.067 163.635 234.36 166.028 233.391 168.387C233.145 168.976 232.874 169.56 232.574 170.138C232.428 170.426 232.263 170.714 232.104 170.997L231.652 171.759C231.056 172.778 230.441 173.783 229.884 174.807C229.32 175.826 228.788 176.857 228.364 177.889C227.942 178.902 227.617 179.986 227.664 180.774C227.721 181.733 226.991 182.555 226.033 182.613C225.075 182.67 224.252 181.939 224.195 180.981C224.188 180.865 224.192 180.751 224.208 180.641L224.22 180.558C224.445 178.98 224.984 177.819 225.463 176.66C225.964 175.518 226.476 174.426 226.977 173.336L228.468 170.089L228.839 169.282C228.944 169.038 229.052 168.801 229.148 168.55C229.346 168.056 229.524 167.546 229.681 167.024C230.333 164.941 230.664 162.701 230.887 160.447C231.12 158.175 231.139 155.929 231.139 153.526C231.139 151.89 232.465 150.565 234.1 150.565C235.736 150.565 237.061 151.891 237.061 153.526C237.061 153.7 237.046 153.87 237.017 154.035L237.01 154.074Z" fill="url(#paint46_linear_41_2898)"/>
<path d="M246.89 173.833C246.202 175.286 245.261 176.248 244.364 177.154C243.456 178.054 242.514 178.851 241.607 179.655C240.702 180.458 239.797 181.238 238.981 182.056C238.576 182.465 238.192 182.882 237.864 183.306C237.542 183.726 237.285 184.177 237.224 184.534L237.209 184.622C237.139 185.03 236.753 185.303 236.346 185.234C235.994 185.174 235.741 184.876 235.724 184.534C235.681 183.663 235.97 182.974 236.251 182.353C236.546 181.732 236.895 181.178 237.258 180.646C237.985 179.586 238.763 178.613 239.541 177.666C240.318 176.72 241.077 175.782 241.782 174.866C242.476 173.949 243.134 173.033 243.458 172.267C243.864 171.308 244.971 170.859 245.93 171.266C246.89 171.672 247.338 172.779 246.932 173.738C246.922 173.76 246.913 173.782 246.903 173.803L246.89 173.833Z" fill="url(#paint47_linear_41_2898)"/>
<path d="M239.558 231.698C237.731 229.113 234.919 227.507 232.219 227.507C230.924 227.507 229.71 227.881 228.708 228.589C225.861 230.601 225.321 234.857 227.243 238.57C225.53 238.872 224.064 240.215 223.148 241.402C221.538 239.656 219.241 238.554 216.685 238.554C211.832 238.554 207.885 242.502 207.885 247.354C207.885 249.349 208.56 251.184 209.682 252.661C207.829 254.609 204.204 259.4 202.671 262.806L202.864 262.893C203.513 262.062 204.393 261.423 205.409 261.07C207.115 258.232 209.493 255.21 210.765 253.846C212.331 255.274 214.405 256.154 216.687 256.154C221.54 256.154 225.487 252.206 225.487 247.354C225.487 245.657 224.996 244.076 224.16 242.731C224.892 241.686 226.528 239.917 228.237 240.133C230.065 242.549 232.758 244.046 235.357 244.046C236.652 244.046 237.865 243.672 238.867 242.964C242.047 240.715 242.357 235.662 239.558 231.698ZM216.685 254.554C212.715 254.554 209.485 251.323 209.485 247.354C209.485 243.384 212.716 240.154 216.685 240.154C220.655 240.154 223.885 243.384 223.885 247.354C223.885 251.323 220.656 254.554 216.685 254.554ZM237.942 241.656C237.212 242.172 236.317 242.445 235.355 242.445C233.166 242.445 230.855 241.098 229.323 238.93C227.032 235.687 227.171 231.634 229.632 229.895C230.372 229.372 231.242 229.107 232.218 229.107C234.407 229.107 236.718 230.454 238.25 232.622C240.542 235.864 240.403 239.917 237.942 241.656Z" fill="url(#paint48_linear_41_2898)"/>
<path d="M187.445 241.304C187.426 241.304 187.409 241.304 187.39 241.303C186.507 241.274 185.815 240.534 185.845 239.65C185.953 236.396 186.905 231.77 188.253 229.973C188.785 229.266 189.787 229.123 190.493 229.653C191.2 230.183 191.344 231.186 190.813 231.893C190.098 232.846 189.149 236.566 189.043 239.757C189.014 240.622 188.303 241.304 187.445 241.304Z" fill="#FF57BC"/>
<path d="M228.235 240.127C231.79 241.472 239.945 246.671 240.4 249.4C240.734 251.4 234.534 253.466 234.066 252.8C233.599 252.134 231.933 248.534 229.8 245.466C228.213 243.184 226.551 241.566 226.347 240.607C226.672 240.433 227.55 239.983 228.235 240.127Z" fill="url(#paint49_linear_41_2898)"/>
<path d="M163.092 220.148C160.112 200.062 161.943 187.654 162.2 183.3C162.6 176.5 166.9 170.834 168.8 165.8C170.364 161.658 172.566 159 171.1 158C168.931 156.522 165 161.666 165 161.666C165 161.666 165.633 148.266 162.7 148.4C160.2 148.514 161.8 156.3 160.4 156.7C159 157.1 156.633 149.4 154.5 149.7C153.345 149.862 153.166 152.666 153.166 152.666C153.166 152.666 152.546 152.146 151.9 152.7C150.966 153.5 151.785 158.219 151 160.1C150.67 159.634 150.42 159.296 149.933 159.4C146.183 160.2 146.834 179.637 146.267 184C145.357 190.988 144.65 204.84 145.516 221.494C149.068 221.893 155.674 222.123 163.092 220.148Z" fill="url(#paint50_linear_41_2898)"/>
<path d="M289.109 208.412C288.346 201.078 287.717 195.566 287.6 193.733C287.2 187.466 286.934 182.266 286.266 176.399C285.599 170.532 283.333 164.133 282.933 161.999C282.533 159.866 283.278 156.961 282.25 154.549C281.383 152.515 280.333 153.332 280.333 153.332C280.333 153.332 280.262 150.434 278.999 150.532C277.499 150.649 275.499 159.849 274.466 159.998C273.872 160.085 274.599 149.498 272.799 149.298C271.507 149.154 270.549 150.949 269.299 156.749C268.221 161.754 269.806 170.599 268.999 170.599C268.099 170.599 267.599 166.599 266.699 163.999C265.799 161.399 264.749 158.849 263.399 158.999C262.057 159.149 261.83 162.314 262.43 166.814C262.906 170.388 268.599 188.399 270.999 196.599C271.934 199.795 272.534 204.878 272.837 210.645C276.162 211.117 282.158 211.23 289.109 208.412Z" fill="url(#paint51_linear_41_2898)"/>
<path d="M150.886 159.584C151.229 160.058 151.468 160.629 151.58 161.223C151.636 161.521 151.666 161.825 151.668 162.131C151.667 162.443 151.651 162.732 151.581 163.071C151.535 163.288 151.322 163.428 151.105 163.382C150.888 163.337 150.748 163.124 150.793 162.906C150.798 162.883 150.805 162.86 150.814 162.838L150.818 162.829C150.905 162.618 150.976 162.339 151.02 162.082C151.065 161.818 151.086 161.548 151.083 161.277C151.075 160.734 150.957 160.191 150.713 159.683C150.689 159.633 150.709 159.574 150.759 159.55C150.804 159.528 150.859 159.546 150.886 159.584Z" fill="#C66C50"/>
<path d="M153.297 151.734C153.183 152.792 153.324 153.858 153.512 154.907C153.608 155.433 153.722 155.956 153.843 156.48C153.962 157.007 154.096 157.521 154.197 158.084C154.236 158.302 154.092 158.51 153.874 158.549C153.656 158.588 153.448 158.443 153.409 158.226C153.407 158.214 153.405 158.202 153.404 158.191L153.404 158.184C153.359 157.678 153.269 157.134 153.196 156.6C153.121 156.063 153.052 155.522 153.001 154.978C152.905 153.895 152.856 152.783 153.069 151.702C153.081 151.639 153.14 151.598 153.204 151.609C153.263 151.618 153.303 151.674 153.297 151.734Z" fill="#C66C50"/>
<path d="M161.066 154.503C161.086 155.438 161.033 156.373 160.965 157.305C160.929 157.771 160.885 158.237 160.835 158.702C160.781 159.172 160.733 159.626 160.637 160.119C160.594 160.336 160.384 160.478 160.167 160.436C159.95 160.394 159.808 160.183 159.85 159.966C159.853 159.951 159.857 159.937 159.861 159.922L159.865 159.913C159.993 159.505 160.099 159.042 160.201 158.597C160.301 158.146 160.395 157.694 160.483 157.24C160.655 156.331 160.81 155.418 160.894 154.496C160.898 154.448 160.941 154.413 160.989 154.418C161.032 154.422 161.065 154.459 161.066 154.503Z" fill="#C66C50"/>
<path d="M166.189 160.226C165.482 160.964 165.032 161.929 164.542 162.842L163.127 165.64C162.644 166.57 162.141 167.496 161.554 168.386C160.952 169.258 160.32 170.161 159.28 170.758C159.089 170.868 158.844 170.802 158.734 170.61C158.624 170.418 158.69 170.174 158.882 170.063C158.888 170.059 158.896 170.055 158.903 170.052L158.918 170.045C159.736 169.641 160.422 168.827 161.028 168.018C161.636 167.193 162.179 166.306 162.704 165.408L164.258 162.687C164.799 161.794 165.292 160.85 166.076 160.108C166.109 160.077 166.16 160.078 166.192 160.111C166.222 160.143 166.221 160.193 166.192 160.224L166.189 160.226Z" fill="#C66C50"/>
<path d="M268.514 169.296C268.726 169.958 269.166 170.508 269.656 171.012C270.15 171.514 270.7 171.967 271.265 172.409C271.829 172.852 272.41 173.278 272.978 173.748C273.262 173.985 273.543 174.23 273.807 174.518C274.06 174.81 274.344 175.132 274.431 175.658C274.467 175.877 274.32 176.083 274.102 176.119C273.883 176.155 273.677 176.008 273.641 175.79C273.639 175.775 273.638 175.762 273.636 175.748V175.742C273.624 175.542 273.454 175.256 273.246 175.006C273.037 174.75 272.785 174.505 272.526 174.266C272.006 173.787 271.446 173.329 270.9 172.85C270.352 172.374 269.81 171.878 269.319 171.325C268.836 170.775 268.38 170.138 268.186 169.404L268.182 169.393C268.158 169.3 268.214 169.206 268.306 169.181C268.395 169.158 268.486 169.209 268.514 169.296Z" fill="#C66C50"/>
<path d="M280.569 152.836C280.641 153.494 280.634 154.141 280.637 154.789C280.634 155.437 280.62 156.083 280.601 156.73C280.557 158.026 280.509 159.308 280.397 160.618C280.379 160.838 280.185 161.001 279.965 160.982C279.745 160.964 279.581 160.77 279.599 160.55C279.6 160.542 279.601 160.533 279.602 160.526L279.603 160.515C279.791 159.263 279.925 157.972 280.05 156.695C280.11 156.055 280.166 155.414 280.21 154.774C280.249 154.134 280.297 153.489 280.268 152.861C280.263 152.778 280.327 152.706 280.41 152.701C280.49 152.697 280.559 152.758 280.569 152.836Z" fill="#C66C50"/>
<path d="M265.6 370C263.8 355 264.929 334.566 271 318.8C275.466 307.2 288.666 286.534 291.6 267.4C293.572 254.537 290.952 226.145 289.109 208.412C282.158 211.23 276.161 211.116 272.837 210.646C273.311 219.676 273.054 230.389 272.2 238.2C270.8 251 262.4 275.4 251.8 289C241.2 302.6 231.4 303.8 223.2 303.8C211.1 303.8 188.5 301.6 173.8 261.2C167.95 245.125 164.765 231.43 163.092 220.148C155.674 222.123 149.068 221.894 145.514 221.494C146.233 235.342 148.04 251.127 151.732 266.534C156.394 285.986 164.932 306 172.932 321.067C180.151 334.663 183.914 358.071 191.598 377.601C196.49 390.033 203.074 408.438 215.108 420.784C216.336 403.065 239.468 385.333 265.6 370Z" fill="url(#paint52_linear_41_2898)"/>
<path d="M150.017 246.765C149.247 246.765 148.504 246.722 147.793 246.633C147.465 246.592 147.231 246.293 147.272 245.964C147.313 245.635 147.615 245.401 147.941 245.442C153.281 246.106 160.594 244.077 167.03 240.152C167.313 239.979 167.682 240.069 167.855 240.352C168.028 240.635 167.938 241.004 167.655 241.177C161.845 244.721 155.306 246.765 150.017 246.765Z" fill="#FFA2BA"/>
<path d="M154.992 278.931C154.703 278.931 154.448 278.722 154.4 278.428C154.348 278.101 154.569 277.793 154.896 277.739C158.483 277.156 171.504 269.664 175.019 265.218C175.224 264.958 175.602 264.915 175.862 265.12C176.122 265.326 176.166 265.703 175.96 265.963C172.232 270.677 158.915 278.302 155.089 278.924C155.056 278.929 155.024 278.931 154.992 278.931Z" fill="#FFA2BA"/>
<path d="M163.776 302.545C163.484 302.545 163.228 302.331 163.183 302.034C163.134 301.706 163.36 301.4 163.688 301.351C167.473 300.786 183.153 289.225 185.493 284.64C185.644 284.345 186.006 284.227 186.301 284.378C186.596 284.529 186.713 284.89 186.562 285.186C184.051 290.105 167.932 301.931 163.865 302.538C163.835 302.542 163.805 302.545 163.776 302.545Z" fill="#FFA2BA"/>
<path d="M172.933 321.666C172.658 321.666 172.41 321.476 172.348 321.197C172.276 320.874 172.48 320.553 172.803 320.481C176.192 319.728 196.926 305.491 200.566 298.336C200.716 298.04 201.077 297.922 201.372 298.073C201.667 298.223 201.786 298.584 201.635 298.879C197.852 306.317 176.873 320.805 173.064 321.651C173.019 321.662 172.976 321.666 172.933 321.666Z" fill="#FFA2BA"/>
<path d="M281.176 238.95C277.492 238.95 273.963 238.561 272.109 238.017C271.792 237.923 271.609 237.59 271.703 237.272C271.796 236.954 272.131 236.773 272.448 236.866C276.233 237.978 287.121 238.348 291.319 236.162C291.612 236.01 291.976 236.124 292.128 236.418C292.28 236.711 292.167 237.074 291.872 237.226C289.465 238.479 285.226 238.95 281.176 238.95Z" fill="#FFA2BA"/>
<path d="M287.56 264.15C279.688 264.15 269.435 260.719 266.801 259.391C266.505 259.242 266.385 258.881 266.534 258.586C266.683 258.29 267.046 258.171 267.34 258.319C270.26 259.791 282.775 263.922 290.505 262.749C290.831 262.702 291.139 262.925 291.189 263.252C291.238 263.579 291.013 263.886 290.685 263.935C289.708 264.084 288.657 264.15 287.56 264.15Z" fill="#FFA2BA"/>
<path d="M285.033 289.464C285.03 289.464 285.027 289.464 285.024 289.464C271.897 289.256 261.552 279.876 259.268 276.482C259.083 276.207 259.156 275.834 259.43 275.65C259.705 275.465 260.079 275.538 260.263 275.812C262.453 279.066 272.395 288.063 285.042 288.263C285.374 288.269 285.638 288.542 285.633 288.873C285.629 289.201 285.361 289.464 285.033 289.464Z" fill="#FFA2BA"/>
<path d="M272.517 315.805C272.498 315.805 272.479 315.804 272.46 315.802C261.048 314.709 244.877 301.802 243.12 297.544C242.993 297.238 243.139 296.887 243.445 296.761C243.753 296.634 244.102 296.781 244.229 297.086C245.866 301.054 261.769 313.573 272.573 314.608C272.904 314.64 273.145 314.933 273.113 315.262C273.085 315.573 272.823 315.805 272.517 315.805Z" fill="#FFA2BA"/>
<path d="M206.5 325.428C190.068 325.428 176.834 324.57 173.774 323.662C173.456 323.567 173.275 323.233 173.37 322.915C173.465 322.598 173.8 322.418 174.116 322.51C181.073 324.575 241.157 326.359 270.84 318.221C271.163 318.13 271.49 318.322 271.577 318.641C271.665 318.96 271.477 319.29 271.157 319.378C254.326 323.994 227.742 325.428 206.5 325.428Z" fill="#FFA2BA"/>
<path d="M183.829 353.922C183.617 353.922 183.41 353.809 183.301 353.608C183.143 353.317 183.251 352.953 183.543 352.794C194.805 346.686 226.593 335.424 266.293 336.539C266.625 336.548 266.885 336.824 266.877 337.156C266.868 337.488 266.597 337.772 266.26 337.739C226.813 336.641 195.278 347.794 184.114 353.85C184.024 353.899 183.926 353.922 183.829 353.922Z" fill="#FFA2BA"/>
<path d="M190.318 374.812C190.136 374.812 189.956 374.729 189.838 374.573C189.639 374.308 189.692 373.931 189.956 373.732C208.372 359.876 233.575 352.587 264.864 352.069C265.211 352.071 265.468 352.328 265.473 352.659C265.479 352.99 265.215 353.263 264.883 353.269C233.853 353.783 208.887 360.99 190.677 374.691C190.57 374.773 190.444 374.812 190.318 374.812Z" fill="#FFA2BA"/>
<path d="M198.373 394.879C198.233 394.879 198.093 394.83 197.979 394.732C197.729 394.514 197.702 394.135 197.92 393.885C200.173 391.293 234.982 367.894 265.073 364.589C265.402 364.539 265.698 364.79 265.735 365.119C265.771 365.449 265.533 365.745 265.204 365.781C236.857 368.894 201.609 391.469 198.825 394.672C198.708 394.81 198.541 394.879 198.373 394.879Z" fill="#FFA2BA"/>
<path d="M292.295 253.732C280.862 261.994 286.93 275.992 288.787 278.883C290.029 275.05 291.018 271.195 291.601 267.4C292.145 263.846 292.338 259.104 292.295 253.732Z" fill="url(#paint53_linear_41_2898)"/>
<path d="M149.445 255.666C150.114 259.29 150.867 262.922 151.733 266.534C152.673 270.458 153.777 274.402 154.997 278.327C164.661 269.866 157.869 256.41 149.445 255.666Z" fill="url(#paint54_linear_41_2898)"/>
<path d="M311.534 397.197C311.534 397.197 256.8 422.133 262.8 425.866C268.8 429.6 284.869 434.498 297.866 439.066C312.559 444.231 326 450.666 326 450.666C326 450.666 316.5 459.9 307.333 470.8C306.599 471.674 305.826 472.634 305.029 473.658C308.165 478.162 316.069 485.911 327.661 488.616C341.602 479.041 365.197 461.992 366.6 447.799C368.517 428.391 315.846 399.103 311.534 397.197Z" fill="url(#paint55_linear_41_2898)"/>
<path d="M359.514 432.095C356.123 436.751 351.658 449.53 360.759 460.35C364.01 456.094 366.202 451.832 366.601 447.8C367.076 442.983 364.188 437.559 359.514 432.095Z" fill="url(#paint56_linear_41_2898)"/>
<path d="M305.029 473.658C297.06 483.894 286.566 500.594 286.082 502.291C285.548 504.158 286.534 509.866 288.266 514.134C289.999 518.401 299.6 531.5 301.333 529.866C303.67 527.664 300.933 511.334 301.866 508.266C302.8 505.199 310.2 500.8 320.4 493.6C322.183 492.341 324.707 490.646 327.662 488.617C316.069 485.912 308.166 478.162 305.029 473.658Z" fill="url(#paint57_linear_41_2898)"/>
<path d="M332.216 486.05C332.182 486.05 332.149 486.048 332.114 486.042C324.137 484.681 310.33 473.888 307.626 470.243C307.428 469.977 307.484 469.601 307.75 469.403C308.017 469.206 308.392 469.262 308.59 469.527C310.938 472.693 324.538 483.532 332.316 484.858C332.642 484.914 332.862 485.224 332.806 485.55C332.756 485.844 332.502 486.05 332.216 486.05Z" fill="#6022B6"/>
<path d="M317.052 478.273C316.885 478.273 316.718 478.203 316.601 478.067C316.383 477.818 316.408 477.439 316.658 477.221C316.851 477.051 336.066 460.141 336.066 449.467C336.066 435.66 287.037 419.333 274.901 416.031C274.581 415.945 274.392 415.614 274.479 415.294C274.566 414.975 274.897 414.787 275.215 414.874C275.836 415.042 337.266 432.516 337.266 449.467C337.266 460.684 318.255 477.418 317.446 478.124C317.334 478.224 317.193 478.273 317.052 478.273Z" fill="#6022B6"/>
<path d="M288.82 497.394C287.249 499.967 286.225 501.789 286.081 502.291C285.749 503.457 286.008 506.119 286.671 508.994C290.811 505.926 289.945 500.407 288.82 497.394Z" fill="url(#paint58_linear_41_2898)"/>
<path d="M288.6 516.4C289.8 515.8 301.771 513.664 303.867 515.934C304.719 516.856 304.266 531.066 302 532.134C300.022 533.065 294.014 526.37 292.565 524.313C291.115 522.256 288.6 516.4 288.6 516.4Z" fill="url(#paint59_linear_41_2898)"/>
<path d="M300.798 533.3C300.534 533.3 300.266 533.235 300.019 533.097C285.379 524.918 282.044 503.233 282.014 503.016C281.895 502.14 282.508 501.334 283.383 501.214C284.258 501.092 285.066 501.708 285.184 502.583C285.212 502.784 288.51 523.002 301.579 530.302C302.35 530.734 302.627 531.708 302.196 532.48C301.904 533.005 301.359 533.3 300.798 533.3Z" fill="url(#paint60_linear_41_2898)"/>
<path d="M391.871 381.162C376.866 366.186 355.794 349.857 333 349.4C303.067 348.8 273.066 366.8 265.6 370C239.468 385.333 216.336 403.065 215.109 420.783C222.96 428.838 233.13 434.315 246.667 433.866C290.934 432.4 304.8 393.6 336.133 393.334C348.63 393.227 361.045 397.921 372.02 403.553C376.33 400.282 386.115 389.137 391.871 381.162Z" fill="url(#paint61_linear_41_2898)"/>
<path d="M245.698 420.015C229.89 420.015 220.063 410.024 218.895 408.772C218.669 408.53 218.682 408.15 218.925 407.924C219.166 407.697 219.546 407.71 219.773 407.953C221.021 409.29 232.49 420.946 250.721 418.472C260.15 417.194 269.444 410.891 280.206 403.594C294.968 393.585 311.7 382.24 333.442 381.266C360.136 380.068 377.259 392.726 377.429 392.854C377.694 393.053 377.746 393.429 377.546 393.694C377.346 393.958 376.97 394.011 376.706 393.811C376.539 393.686 359.742 381.295 333.494 382.464C312.09 383.422 295.508 394.666 280.878 404.587C269.991 411.969 260.589 418.343 250.88 419.66C249.089 419.905 247.359 420.015 245.698 420.015Z" fill="#00E2EC"/>
<path d="M234.843 418.356C234.647 418.356 234.455 418.26 234.34 418.083C234.159 417.805 234.239 417.433 234.516 417.253C236.109 416.217 237.123 413.602 237.45 409.691C238.06 402.382 236.051 392.846 234.539 391.456C234.295 391.232 234.279 390.852 234.504 390.608C234.729 390.365 235.108 390.349 235.352 390.573C237.255 392.322 239.269 402.332 238.647 409.79C238.283 414.146 237.113 416.995 235.171 418.258C235.069 418.325 234.955 418.356 234.843 418.356Z" fill="#00E2EC"/>
<path d="M436.134 406.534C434.801 404.934 418.5 407.8 414.2 405.8C412.563 405.039 404.298 393.565 391.871 381.162C386.115 389.137 376.331 400.281 372.021 403.553C388.08 411.794 401.059 422.042 406.704 422.205C416.9 422.5 437.467 408.134 436.134 406.534Z" fill="url(#paint62_linear_41_2898)"/>
<path d="M368.287 402.306C368.077 402.306 367.874 402.196 367.763 402.001C367.601 401.713 367.703 401.346 367.991 401.183C370.685 399.661 384.373 386.2 387.604 377.358C387.718 377.046 388.063 376.886 388.374 377.001C388.685 377.114 388.845 377.458 388.731 377.77C385.345 387.038 371.442 400.612 368.581 402.229C368.488 402.281 368.387 402.306 368.287 402.306Z" fill="#00E2EC"/>
<path d="M336 361.066C343.655 360.976 349.128 356.214 351.826 353.208C345.754 350.93 339.446 349.529 333 349.4C327.601 349.292 322.201 349.795 316.93 350.702C319.797 355.156 326.577 361.178 336 361.066Z" fill="url(#paint63_linear_41_2898)"/>
<path d="M408.133 417.2C404.675 417.048 402.245 418.882 401.274 420.435C403.484 421.514 405.316 422.166 406.704 422.206C408.75 422.265 411.216 421.726 413.837 420.826C413.016 419.32 411.336 417.342 408.133 417.2Z" fill="url(#paint64_linear_41_2898)"/>
<path d="M427.8 401.9C426.081 402.444 422.92 412.058 428.16 419.379C429.648 417.947 435.105 412.47 436.721 410.608C438.336 408.746 443.9 401.1 444.295 400.437C444.69 399.774 434.75 399.7 427.8 401.9Z" fill="url(#paint65_linear_41_2898)"/>
<path d="M415.801 431.8C415.302 431.8 414.81 431.567 414.497 431.13C413.984 430.411 414.15 429.412 414.87 428.898C416.405 427.802 435.945 411.647 442.212 400.705C442.65 399.939 443.629 399.672 444.395 400.112C445.161 400.551 445.427 401.529 444.988 402.295C438.34 413.902 418.381 430.322 416.729 431.502C416.449 431.703 416.123 431.8 415.801 431.8Z" fill="url(#paint66_linear_41_2898)"/>
<path d="M280.272 473.502L280.338 473.479C280.884 473.27 281.161 472.651 280.95 472.1C280.793 471.688 280.391 471.413 279.951 471.413C279.821 471.413 279.693 471.436 279.569 471.483C277.097 472.428 274.404 473.296 270.837 474.298C268.173 475.023 265.328 475.682 261.879 476.373C256.257 477.502 250.294 478.305 243.649 478.826C238.957 479.17 234.267 479.345 229.704 479.345C221.937 479.345 214.307 478.841 207.025 477.848C200.453 476.947 194.669 475.717 189.341 474.084C186.183 473.113 183.504 472.07 181.149 470.894C179.793 470.215 178.571 469.5 177.516 468.767C177.235 468.573 176.96 468.37 176.698 468.17L176.332 467.881L175.923 467.543C175.37 467.082 174.842 466.611 174.352 466.142C172.207 464.09 170.638 461.924 169.689 459.704C168.689 457.373 168.341 454.92 168.657 452.414C168.955 450.048 169.902 447.579 171.397 445.275C172.119 444.154 172.937 443.125 173.828 442.221C174.588 441.445 175.706 440.506 176.488 440.164L176.567 440.128C177.392 439.742 178.016 439.058 178.325 438.202C178.635 437.346 178.593 436.421 178.206 435.598C177.647 434.406 176.435 433.636 175.119 433.636C174.619 433.636 174.133 433.745 173.676 433.959C171.546 434.958 170.224 436.176 168.946 437.442C167.723 438.693 166.642 440.058 165.653 441.603C163.641 444.782 162.426 448.162 162.044 451.65C161.841 453.525 161.893 455.377 162.202 457.154C162.517 458.946 163.078 460.701 163.872 462.368C165.271 465.316 167.414 468.09 170.241 470.614C170.861 471.165 171.513 471.706 172.179 472.222L172.683 472.6L173.237 472.994C173.59 473.236 173.947 473.468 174.314 473.696C175.657 474.526 177.118 475.283 178.778 476.01C181.509 477.197 184.429 478.165 187.966 479.058C193.393 480.401 199.32 481.279 206.618 481.822C210.572 482.114 214.691 482.256 219.209 482.256C221.16 482.256 223.147 482.23 225.285 482.176C231.08 482.046 237.15 481.626 243.843 480.897C257.499 479.386 269.416 476.968 280.272 473.502Z" fill="url(#paint67_linear_41_2898)"/>
<path d="M317.094 547.967C322.013 546.35 326.325 544.378 330.277 541.933C335.098 538.907 338.665 535.464 341.174 531.412C344.14 526.633 345.454 520.668 344.69 515.456C344.474 514.058 344.106 512.672 343.598 511.342C343.098 509.988 342.42 508.658 341.581 507.382C340.628 505.974 339.577 504.816 338.374 503.849C337.699 503.306 336.967 502.827 336.199 502.426C335.826 502.233 335.422 502.05 334.961 501.871C334.759 501.794 334.541 501.718 334.255 501.629L334.043 501.564L333.952 501.541L333.753 501.491C333.402 501.405 333.038 501.361 332.676 501.361C330.762 501.361 329.044 502.562 328.401 504.348C327.557 506.694 328.779 509.29 331.125 510.133L331.331 510.208C331.434 510.244 331.566 510.291 331.69 510.406C331.755 510.443 331.818 510.482 331.882 510.525C332.098 510.654 332.301 510.817 332.514 510.989L332.524 510.996L332.559 511.025C333.075 511.466 333.57 512.011 333.99 512.603C334.858 513.767 335.627 515.374 336.203 517.232C336.838 519.197 337.146 521.037 337.114 522.691C337.092 523.186 337.065 523.651 336.978 524.126C336.941 524.344 336.898 524.57 336.85 524.794L336.778 525.099L336.772 525.122L336.766 525.143L336.648 525.541C336.402 526.394 336.024 527.366 335.584 528.272C333.97 531.626 331.147 534.922 327.419 537.802C324.282 540.254 320.472 542.413 315.774 544.398C307.947 547.623 298.97 549.736 289.086 550.681C285.266 551.037 281.371 551.218 277.506 551.218C272.146 551.218 266.723 550.871 261.389 550.189C261.35 550.183 261.318 550.182 261.286 550.182C260.896 550.182 260.566 550.474 260.519 550.864C260.494 551.07 260.55 551.273 260.678 551.436C260.806 551.599 260.989 551.702 261.194 551.728C268.303 552.596 275.207 553.037 281.713 553.037C284.248 553.037 286.781 552.97 289.242 552.839C294.33 552.566 298.92 552.074 303.272 551.333C308.15 550.526 312.799 549.394 317.094 547.967Z" fill="url(#paint68_linear_41_2898)"/>
<path d="M358.103 521.826C357.901 521.826 357.729 521.985 357.713 522.187C357.585 523.747 357.302 525.262 356.872 526.712C356.478 528.03 355.924 529.397 355.177 530.891C353.931 533.346 352.159 535.773 349.905 538.104C347.795 540.262 345.474 542.095 343.003 543.556C341.757 544.289 340.465 544.904 339.254 545.46C338.577 545.762 337.92 546.036 337.422 546.24L336.528 546.587L336.155 546.736C336.085 546.767 335.982 546.809 335.849 546.85L335.582 546.94C334.551 547.29 333.85 548.294 333.88 549.381C333.916 550.75 335.015 551.822 336.383 551.822L336.451 551.82L336.749 551.812C336.832 551.812 336.91 551.808 337.008 551.794L337.014 551.794L337.06 551.788C337.301 551.759 337.53 551.732 337.734 551.696C338.227 551.613 338.656 551.52 339.05 551.411C339.864 551.194 340.696 550.894 341.532 550.514C342.921 549.895 344.272 549.066 345.913 547.825C348.579 545.8 350.951 543.387 352.961 540.655C354.969 537.927 356.506 534.962 357.53 531.844C358.585 528.583 358.919 525.235 358.495 522.167C358.47 521.986 358.319 521.845 358.137 521.83L358.121 521.432C358.115 521.431 358.11 521.429 358.104 521.428V521.826H358.103Z" fill="url(#paint69_linear_41_2898)"/>
<path d="M466.7 413.224C465.084 413.224 463.757 414.54 463.744 416.157C463.729 417.998 463.397 420.139 462.728 422.702C462.149 424.902 461.388 427.102 460.465 429.239C458.576 433.61 456.206 437.691 453.421 441.374C450.568 445.145 447.281 448.616 443.656 451.69C439.728 455.043 435.631 457.612 431.48 459.322C431.468 459.327 431.448 459.338 431.43 459.346C431.316 459.41 431.236 459.513 431.2 459.636C431.166 459.759 431.182 459.889 431.244 460.001C431.329 460.153 431.491 460.247 431.664 460.247C431.748 460.247 431.825 460.227 431.899 460.186C436.429 457.651 440.495 455.334 444.379 452.627C448.371 449.839 452.067 446.599 455.364 442.998C458.861 439.158 461.804 435.142 464.108 431.062C465.462 428.65 466.542 426.434 467.407 424.289C468.544 421.432 469.22 419.117 469.599 416.787L469.624 416.634C469.644 416.502 469.656 416.354 469.658 416.206C469.672 414.576 468.356 413.238 466.725 413.225L466.712 412.826C466.708 412.826 466.704 412.825 466.699 412.825V413.224H466.7Z" fill="url(#paint70_linear_41_2898)"/>
<path d="M158.444 338.352L158.488 338.326C158.87 338.079 158.98 337.57 158.735 337.19C158.584 336.955 158.325 336.814 158.044 336.814C157.888 336.814 157.734 336.86 157.601 336.946C155.601 338.234 153.517 339.458 151.501 340.641C150.801 341.052 150.1 341.463 149.399 341.879C146.164 343.769 143.602 345.441 141.332 347.146C138.715 349.165 136.182 351.23 134.052 354.199C132.836 355.934 132.036 357.648 131.613 359.43C131.044 361.712 131.308 364.175 131.516 365.442L131.562 365.725C131.603 365.964 131.672 366.208 131.767 366.445C132.312 367.81 133.615 368.691 135.084 368.691C135.537 368.691 135.983 368.606 136.408 368.435C138.236 367.704 139.129 365.621 138.398 363.792C137.931 362.625 137.64 361.663 137.636 360.48C137.625 359.399 137.931 358.162 138.519 356.903C139.545 354.7 141.292 352.333 143.71 349.867C145.632 347.894 147.891 345.865 150.614 343.665C153.336 341.509 155.896 339.773 158.444 338.352Z" fill="url(#paint71_linear_41_2898)"/>
<path d="M486.943 409.975C486.653 409.625 486.331 409.461 485.931 409.461C485.838 409.461 485.739 409.47 485.638 409.488C484.013 409.773 483.922 411.495 484.107 415.086C484.18 416.519 484.257 418.002 484.094 419.392C483.82 421.75 482.665 423.571 481.821 424.9C481.362 425.624 480.791 426.522 480.959 426.726C480.959 426.726 480.961 426.726 480.964 426.726C480.974 426.726 480.996 426.729 481.031 426.729C482.445 426.729 486.603 423.059 487.514 418.25C488.225 414.502 488.001 411.253 486.943 409.975Z" fill="url(#paint72_linear_41_2898)"/>
<path d="M387.482 437.089C386.957 436.361 386.267 436.006 385.374 436.006C385.223 436.006 385.066 436.018 384.905 436.038C382.414 436.354 382.543 439.202 382.958 443.822C383.134 445.774 383.315 447.794 383.168 449.649C382.92 452.766 381.477 455.236 380.422 457.04C379.534 458.559 379.009 459.51 379.414 459.886C379.481 459.949 379.546 459.974 379.646 459.974C381.135 459.974 384.871 455.522 387.108 448.813C388.83 443.65 388.973 439.158 387.482 437.089Z" fill="url(#paint73_linear_41_2898)"/>
<path d="M150.936 325.926C150.937 325.244 150.749 324.709 150.373 324.332C149.873 323.831 149.013 323.566 147.883 323.566C145.241 323.566 141.565 324.985 138.047 327.363C133.573 330.387 130.497 333.154 129.068 334.774C129.125 334.74 129.181 334.706 129.237 334.673C131.15 333.536 134.04 331.818 137.594 330.876C139.618 330.34 141.693 330.044 143.521 329.784C148.251 329.11 150.928 328.598 150.936 325.926Z" fill="url(#paint74_linear_41_2898)"/>
<path d="M210.647 460.363C209.993 459.513 208.313 458.928 206.152 458.798C205.816 458.778 205.413 458.769 204.959 458.757C201.897 458.681 196.773 458.554 193.072 455.301C188.436 451.225 188.013 446.889 187.809 444.806C187.797 444.677 187.783 444.537 187.769 444.406C187.69 444.489 187.607 444.608 187.523 444.775C186.491 446.835 187.136 452.801 190.141 456.822C192.607 460.121 197.613 463.559 203.234 463.802C203.909 463.83 204.507 463.845 205.064 463.845C209.825 463.845 210.693 462.728 210.913 461.636C211.013 461.134 210.929 460.73 210.647 460.363Z" fill="url(#paint75_linear_41_2898)"/>
<defs>
<linearGradient id="paint0_linear_41_2898" x1="305.233" y1="644.233" x2="305.233" y2="61.7196" gradientUnits="userSpaceOnUse">
<stop stop-color="#3E92CC"/>
<stop offset="1" stop-color="#8CE6FD"/>
</linearGradient>
<linearGradient id="paint1_linear_41_2898" x1="62.4659" y1="263.3" x2="122.8" y2="263.3" gradientUnits="userSpaceOnUse">
<stop stop-color="#B0E1FF"/>
<stop offset="1" stop-color="white"/>
</linearGradient>
<linearGradient id="paint2_linear_41_2898" x1="71.1845" y1="271.24" x2="116.6" y2="271.24" gradientUnits="userSpaceOnUse">
<stop stop-color="#00E2EC"/>
<stop offset="1" stop-color="#0090B2"/>
</linearGradient>
<linearGradient id="paint3_linear_41_2898" x1="276.015" y1="604.831" x2="276.015" y2="494.008" gradientUnits="userSpaceOnUse">
<stop stop-color="#6B49C0"/>
<stop offset="1" stop-color="#5E7ED9"/>
</linearGradient>
<linearGradient id="paint4_linear_41_2898" x1="324" y1="134.763" x2="329.066" y2="134.763" gradientUnits="userSpaceOnUse">
<stop stop-color="white"/>
<stop offset="1" stop-color="#B0E1FF"/>
</linearGradient>
<linearGradient id="paint5_linear_41_2898" x1="318.333" y1="85.2" x2="406.461" y2="85.2" gradientUnits="userSpaceOnUse">
<stop stop-color="white"/>
<stop offset="1" stop-color="#B0E1FF"/>
</linearGradient>
<linearGradient id="paint6_linear_41_2898" x1="318.333" y1="142.933" x2="418.093" y2="142.933" gradientUnits="userSpaceOnUse">
<stop stop-color="white"/>
<stop offset="1" stop-color="#B0E1FF"/>
</linearGradient>
<linearGradient id="paint7_linear_41_2898" x1="318.333" y1="208.067" x2="416.868" y2="208.067" gradientUnits="userSpaceOnUse">
<stop stop-color="white"/>
<stop offset="1" stop-color="#B0E1FF"/>
</linearGradient>
<linearGradient id="paint8_linear_41_2898" x1="62.4644" y1="263.3" x2="116.6" y2="263.3" gradientUnits="userSpaceOnUse">
<stop stop-color="#8C6AE2"/>
<stop offset="1" stop-color="#5A55F8"/>
</linearGradient>
<linearGradient id="paint9_linear_41_2898" x1="88.2665" y1="275.2" x2="105.333" y2="275.2" gradientUnits="userSpaceOnUse">
<stop stop-color="#C07EB0"/>
<stop offset="1" stop-color="#EE5C95"/>
</linearGradient>
<linearGradient id="paint10_linear_41_2898" x1="96.0757" y1="581.061" x2="163.871" y2="581.061" gradientUnits="userSpaceOnUse">
<stop stop-color="#C07EB0"/>
<stop offset="1" stop-color="#EE5C95"/>
</linearGradient>
<linearGradient id="paint11_linear_41_2898" x1="113.999" y1="532.931" x2="145.604" y2="564.537" gradientUnits="userSpaceOnUse">
<stop stop-color="#8173CC"/>
<stop offset="1" stop-color="#271068"/>
</linearGradient>
<linearGradient id="paint12_linear_41_2898" x1="115.099" y1="406.088" x2="131.346" y2="406.088" gradientUnits="userSpaceOnUse">
<stop stop-color="#FDE1A7"/>
<stop offset="1" stop-color="#F9A144"/>
</linearGradient>
<linearGradient id="paint13_linear_41_2898" x1="130.727" y1="521.138" x2="214.777" y2="521.138" gradientUnits="userSpaceOnUse">
<stop stop-color="#00E2EC"/>
<stop offset="1" stop-color="#0090B2"/>
</linearGradient>
<linearGradient id="paint14_linear_41_2898" x1="140.999" y1="533.786" x2="167.795" y2="533.786" gradientUnits="userSpaceOnUse">
<stop stop-color="#FDE1A7"/>
<stop offset="1" stop-color="#F9A144"/>
</linearGradient>
<linearGradient id="paint15_linear_41_2898" x1="82.2717" y1="498.382" x2="120.534" y2="498.382" gradientUnits="userSpaceOnUse">
<stop stop-color="#5A55F8"/>
<stop offset="0.3102" stop-color="#6E5EEF"/>
<stop offset="0.7287" stop-color="#8467E5"/>
<stop offset="1" stop-color="#8C6AE2"/>
</linearGradient>
<linearGradient id="paint16_linear_41_2898" x1="121.606" y1="475.658" x2="160.85" y2="475.658" gradientUnits="userSpaceOnUse">
<stop stop-color="#5A55F8"/>
<stop offset="1" stop-color="#8C6AE2"/>
</linearGradient>
<linearGradient id="paint17_linear_41_2898" x1="92.1936" y1="486.139" x2="159.421" y2="486.139" gradientUnits="userSpaceOnUse">
<stop stop-color="#FF57BD"/>
<stop offset="1" stop-color="#FE6A77"/>
</linearGradient>
<linearGradient id="paint18_linear_41_2898" x1="171.245" y1="522.911" x2="187.764" y2="522.911" gradientUnits="userSpaceOnUse">
<stop stop-color="#00E2EC"/>
<stop offset="1" stop-color="#0090B2"/>
</linearGradient>
<linearGradient id="paint19_linear_41_2898" x1="413.43" y1="355" x2="413.43" y2="330.8" gradientUnits="userSpaceOnUse">
<stop stop-color="white"/>
<stop offset="1" stop-color="#E9B6F2"/>
</linearGradient>
<linearGradient id="paint20_linear_41_2898" x1="333.066" y1="285.6" x2="489.066" y2="285.6" gradientUnits="userSpaceOnUse">
<stop stop-color="white"/>
<stop offset="1" stop-color="#F1D1F8"/>
</linearGradient>
<linearGradient id="paint21_linear_41_2898" x1="386.768" y1="259.207" x2="472.37" y2="259.207" gradientUnits="userSpaceOnUse">
<stop stop-color="#FDE1A7"/>
<stop offset="1" stop-color="#F9A144"/>
</linearGradient>
<linearGradient id="paint22_linear_41_2898" x1="306.5" y1="334" x2="426.5" y2="275" gradientUnits="userSpaceOnUse">
<stop stop-color="#FFFAFF"/>
<stop offset="0.722186" stop-color="#FB6533"/>
<stop offset="1" stop-color="#FA541C"/>
</linearGradient>
<linearGradient id="paint23_linear_41_2898" x1="330.161" y1="238.002" x2="330.161" y2="291.228" gradientUnits="userSpaceOnUse">
<stop stop-color="#FFFAFF"/>
<stop offset="1" stop-color="#FA541C"/>
</linearGradient>
<linearGradient id="paint24_linear_41_2898" x1="321.698" y1="254.686" x2="321.698" y2="284.751" gradientUnits="userSpaceOnUse">
<stop stop-color="#FFFAFF"/>
<stop offset="1" stop-color="#FA541C"/>
</linearGradient>
<linearGradient id="paint25_linear_41_2898" x1="506.667" y1="338.045" x2="526" y2="338.045" gradientUnits="userSpaceOnUse">
<stop stop-color="#FF57BD"/>
<stop offset="1" stop-color="#FE6A77"/>
</linearGradient>
<linearGradient id="paint26_linear_41_2898" x1="482.934" y1="339.98" x2="516.967" y2="339.98" gradientUnits="userSpaceOnUse">
<stop stop-color="#C07EB0"/>
<stop offset="1" stop-color="#EE5C95"/>
</linearGradient>
<linearGradient id="paint27_linear_41_2898" x1="493.064" y1="315.195" x2="506.876" y2="329.006" gradientUnits="userSpaceOnUse">
<stop stop-color="#994574"/>
<stop offset="1" stop-color="#43256F"/>
</linearGradient>
<linearGradient id="paint28_linear_41_2898" x1="493.865" y1="302.876" x2="521.937" y2="302.876" gradientUnits="userSpaceOnUse">
<stop stop-color="white"/>
<stop offset="1" stop-color="#FDE1A7"/>
</linearGradient>
<linearGradient id="paint29_linear_41_2898" x1="475.544" y1="289.725" x2="489.807" y2="289.725" gradientUnits="userSpaceOnUse">
<stop stop-color="white"/>
<stop offset="1" stop-color="#FDE1A7"/>
</linearGradient>
<linearGradient id="paint30_linear_41_2898" x1="471.021" y1="305.745" x2="482.767" y2="305.745" gradientUnits="userSpaceOnUse">
<stop stop-color="white"/>
<stop offset="1" stop-color="#FDE1A7"/>
</linearGradient>
<linearGradient id="paint31_linear_41_2898" x1="496.735" y1="381.734" x2="496.735" y2="360.267" gradientUnits="userSpaceOnUse">
<stop stop-color="#FFE2A8"/>
<stop offset="1" stop-color="#A482FF"/>
</linearGradient>
<linearGradient id="paint32_linear_41_2898" x1="353.833" y1="360.18" x2="569.867" y2="360.18" gradientUnits="userSpaceOnUse">
<stop stop-color="#F9A144"/>
<stop offset="1" stop-color="#FDE1A7"/>
</linearGradient>
<linearGradient id="paint33_linear_41_2898" x1="260.6" y1="527.614" x2="260.6" y2="455.1" gradientUnits="userSpaceOnUse">
<stop stop-color="#8173CC"/>
<stop offset="1" stop-color="#271068"/>
</linearGradient>
<linearGradient id="paint34_linear_41_2898" x1="149.218" y1="372.718" x2="218.353" y2="372.718" gradientUnits="userSpaceOnUse">
<stop stop-color="#994574"/>
<stop offset="1" stop-color="#43256F"/>
</linearGradient>
<linearGradient id="paint35_linear_41_2898" x1="148.961" y1="382.686" x2="199.179" y2="382.686" gradientUnits="userSpaceOnUse">
<stop stop-color="#8173CC"/>
<stop offset="1" stop-color="#271068"/>
</linearGradient>
<linearGradient id="paint36_linear_41_2898" x1="211.591" y1="439.488" x2="306.811" y2="439.488" gradientUnits="userSpaceOnUse">
<stop stop-color="#994574"/>
<stop offset="1" stop-color="#43256F"/>
</linearGradient>
<linearGradient id="paint37_linear_41_2898" x1="211.599" y1="447.034" x2="306.81" y2="447.034" gradientUnits="userSpaceOnUse">
<stop stop-color="#8173CC"/>
<stop offset="1" stop-color="#271068"/>
</linearGradient>
<linearGradient id="paint38_linear_41_2898" x1="194.085" y1="547.123" x2="292.539" y2="547.123" gradientUnits="userSpaceOnUse">
<stop stop-color="#271068"/>
<stop offset="1" stop-color="#8173CC"/>
</linearGradient>
<linearGradient id="paint39_linear_41_2898" x1="193.333" y1="570.666" x2="213.6" y2="570.666" gradientUnits="userSpaceOnUse">
<stop stop-color="#994574"/>
<stop offset="1" stop-color="#43256F"/>
</linearGradient>
<linearGradient id="paint40_linear_41_2898" x1="282.772" y1="538.12" x2="298.916" y2="538.12" gradientUnits="userSpaceOnUse">
<stop stop-color="#994574"/>
<stop offset="1" stop-color="#43256F"/>
</linearGradient>
<linearGradient id="paint41_linear_41_2898" x1="222.5" y1="309.843" x2="222.5" y2="266.966" gradientUnits="userSpaceOnUse">
<stop stop-color="#E8878E"/>
<stop offset="0.2186" stop-color="#E58589"/>
<stop offset="0.4692" stop-color="#DE7F7B"/>
<stop offset="0.7347" stop-color="#D27565"/>
<stop offset="1" stop-color="#C16846"/>
</linearGradient>
<linearGradient id="paint42_linear_41_2898" x1="192.264" y1="249.545" x2="245.566" y2="249.545" gradientUnits="userSpaceOnUse">
<stop stop-color="#E8878E"/>
<stop offset="1" stop-color="#F4BEA3"/>
</linearGradient>
<linearGradient id="paint43_linear_41_2898" x1="173.978" y1="233.646" x2="239.821" y2="233.646" gradientUnits="userSpaceOnUse">
<stop stop-color="#14080E"/>
<stop offset="1" stop-color="#06090C"/>
</linearGradient>
<linearGradient id="paint44_linear_41_2898" x1="211.407" y1="185.084" x2="211.407" y2="141.913" gradientUnits="userSpaceOnUse">
<stop stop-color="#FDE1A7"/>
<stop offset="1" stop-color="white"/>
</linearGradient>
<linearGradient id="paint45_linear_41_2898" x1="190.187" y1="188.628" x2="190.187" y2="159.878" gradientUnits="userSpaceOnUse">
<stop stop-color="#FDE1A7"/>
<stop offset="1" stop-color="white"/>
</linearGradient>
<linearGradient id="paint46_linear_41_2898" x1="230.626" y1="182.616" x2="230.626" y2="150.566" gradientUnits="userSpaceOnUse">
<stop stop-color="#FDE1A7"/>
<stop offset="1" stop-color="white"/>
</linearGradient>
<linearGradient id="paint47_linear_41_2898" x1="241.402" y1="185.245" x2="241.402" y2="171.116" gradientUnits="userSpaceOnUse">
<stop stop-color="#FDE1A7"/>
<stop offset="1" stop-color="white"/>
</linearGradient>
<linearGradient id="paint48_linear_41_2898" x1="202.67" y1="245.199" x2="241.47" y2="245.199" gradientUnits="userSpaceOnUse">
<stop stop-color="#5A55F8"/>
<stop offset="1" stop-color="#8C6AE2"/>
</linearGradient>
<linearGradient id="paint49_linear_41_2898" x1="226.347" y1="246.513" x2="240.413" y2="246.513" gradientUnits="userSpaceOnUse">
<stop stop-color="#FF57BD"/>
<stop offset="1" stop-color="#FE6A77"/>
</linearGradient>
<linearGradient id="paint50_linear_41_2898" x1="145.122" y1="185.081" x2="171.582" y2="185.081" gradientUnits="userSpaceOnUse">
<stop stop-color="#E8878E"/>
<stop offset="1" stop-color="#F4BEA3"/>
</linearGradient>
<linearGradient id="paint51_linear_41_2898" x1="262.116" y1="180.098" x2="289.109" y2="180.098" gradientUnits="userSpaceOnUse">
<stop stop-color="#E8878E"/>
<stop offset="1" stop-color="#F4BEA3"/>
</linearGradient>
<linearGradient id="paint52_linear_41_2898" x1="153" y1="240" x2="299" y2="421" gradientUnits="userSpaceOnUse">
<stop stop-color="#FA541C"/>
<stop offset="1" stop-color="#6935B4"/>
</linearGradient>
<linearGradient id="paint53_linear_41_2898" x1="285.513" y1="266.308" x2="292.301" y2="266.308" gradientUnits="userSpaceOnUse">
<stop stop-color="#F9A144"/>
<stop offset="1" stop-color="#FDE1A7"/>
</linearGradient>
<linearGradient id="paint54_linear_41_2898" x1="151.467" y1="267.129" x2="159.457" y2="265.72" gradientUnits="userSpaceOnUse">
<stop stop-color="#FDE1A7"/>
<stop offset="1" stop-color="#F9A144"/>
</linearGradient>
<linearGradient id="paint55_linear_41_2898" x1="262.341" y1="442.906" x2="366.651" y2="442.906" gradientUnits="userSpaceOnUse">
<stop stop-color="#00E2EC"/>
<stop offset="0.2998" stop-color="#20B5DF"/>
<stop offset="1" stop-color="#6A4EC2"/>
</linearGradient>
<linearGradient id="paint56_linear_41_2898" x1="355.377" y1="446.223" x2="366.651" y2="446.223" gradientUnits="userSpaceOnUse">
<stop stop-color="#5A18B2"/>
<stop offset="1" stop-color="#7A50C9"/>
</linearGradient>
<linearGradient id="paint57_linear_41_2898" x1="285.937" y1="501.833" x2="327.662" y2="501.833" gradientUnits="userSpaceOnUse">
<stop stop-color="#E8878E"/>
<stop offset="0.2186" stop-color="#E58589"/>
<stop offset="0.4692" stop-color="#DE7F7B"/>
<stop offset="0.7347" stop-color="#D27565"/>
<stop offset="1" stop-color="#C16846"/>
</linearGradient>
<linearGradient id="paint58_linear_41_2898" x1="285.936" y1="503.195" x2="289.75" y2="503.195" gradientUnits="userSpaceOnUse">
<stop stop-color="#F4BEA3"/>
<stop offset="1" stop-color="#E8878E"/>
</linearGradient>
<linearGradient id="paint59_linear_41_2898" x1="288.6" y1="523.567" x2="304.268" y2="523.567" gradientUnits="userSpaceOnUse">
<stop stop-color="#FE6A77"/>
<stop offset="1" stop-color="#C91C91"/>
</linearGradient>
<linearGradient id="paint60_linear_41_2898" x1="282" y1="517.25" x2="302.401" y2="517.25" gradientUnits="userSpaceOnUse">
<stop stop-color="#994574"/>
<stop offset="1" stop-color="#43256F"/>
</linearGradient>
<linearGradient id="paint61_linear_41_2898" x1="215.109" y1="391.639" x2="391.871" y2="391.639" gradientUnits="userSpaceOnUse">
<stop stop-color="#05C5DA"/>
<stop offset="0.0356" stop-color="#0ABED8"/>
<stop offset="0.375" stop-color="#387CC7"/>
<stop offset="0.6602" stop-color="#594CBA"/>
<stop offset="0.877" stop-color="#6D2EB2"/>
<stop offset="1" stop-color="#7523AF"/>
</linearGradient>
<linearGradient id="paint62_linear_41_2898" x1="372.021" y1="401.686" x2="436.195" y2="401.686" gradientUnits="userSpaceOnUse">
<stop stop-color="#E8878E"/>
<stop offset="0.2186" stop-color="#E58589"/>
<stop offset="0.4692" stop-color="#DE7F7B"/>
<stop offset="0.7347" stop-color="#D27565"/>
<stop offset="1" stop-color="#C16846"/>
</linearGradient>
<linearGradient id="paint63_linear_41_2898" x1="334.378" y1="361.068" x2="334.378" y2="349.386" gradientUnits="userSpaceOnUse">
<stop stop-color="#170389"/>
<stop offset="0.0772" stop-color="#1C058C"/>
<stop offset="1" stop-color="#5A18B2"/>
</linearGradient>
<linearGradient id="paint64_linear_41_2898" x1="406.95" y1="417.195" x2="407.845" y2="422.272" gradientUnits="userSpaceOnUse">
<stop stop-color="#E8878E"/>
<stop offset="1" stop-color="#F4BEA3"/>
</linearGradient>
<linearGradient id="paint65_linear_41_2898" x1="425.273" y1="409.703" x2="444.307" y2="409.703" gradientUnits="userSpaceOnUse">
<stop stop-color="#FE6A77"/>
<stop offset="1" stop-color="#C91C91"/>
</linearGradient>
<linearGradient id="paint66_linear_41_2898" x1="414.2" y1="415.85" x2="445.2" y2="415.85" gradientUnits="userSpaceOnUse">
<stop stop-color="#43256F"/>
<stop offset="1" stop-color="#994574"/>
</linearGradient>
<linearGradient id="paint67_linear_41_2898" x1="189.861" y1="490.305" x2="244.574" y2="435.593" gradientUnits="userSpaceOnUse">
<stop stop-color="white"/>
<stop offset="1" stop-color="#FDE1A7"/>
</linearGradient>
<linearGradient id="paint68_linear_41_2898" x1="291.545" y1="519.605" x2="322.799" y2="550.86" gradientUnits="userSpaceOnUse">
<stop stop-color="#FDE1A7"/>
<stop offset="1" stop-color="white"/>
</linearGradient>
<linearGradient id="paint69_linear_41_2898" x1="333.879" y1="536.623" x2="358.672" y2="536.623" gradientUnits="userSpaceOnUse">
<stop stop-color="white"/>
<stop offset="1" stop-color="#FDE1A7"/>
</linearGradient>
<linearGradient id="paint70_linear_41_2898" x1="431.183" y1="436.536" x2="469.659" y2="436.536" gradientUnits="userSpaceOnUse">
<stop stop-color="white"/>
<stop offset="1" stop-color="#FDE1A7"/>
</linearGradient>
<linearGradient id="paint71_linear_41_2898" x1="131.268" y1="352.752" x2="158.865" y2="352.752" gradientUnits="userSpaceOnUse">
<stop stop-color="white"/>
<stop offset="0.4533" stop-color="#FEEFD0"/>
<stop offset="0.8021" stop-color="#FDE5B2"/>
<stop offset="1" stop-color="#FDE1A7"/>
</linearGradient>
<linearGradient id="paint72_linear_41_2898" x1="480.929" y1="418.095" x2="487.925" y2="418.095" gradientUnits="userSpaceOnUse">
<stop stop-color="white"/>
<stop offset="1" stop-color="#FDE1A7"/>
</linearGradient>
<linearGradient id="paint73_linear_41_2898" x1="379.275" y1="447.991" x2="388.507" y2="447.991" gradientUnits="userSpaceOnUse">
<stop stop-color="white"/>
<stop offset="1" stop-color="#FDE1A7"/>
</linearGradient>
<linearGradient id="paint74_linear_41_2898" x1="129.068" y1="329.17" x2="150.936" y2="329.17" gradientUnits="userSpaceOnUse">
<stop stop-color="white"/>
<stop offset="1" stop-color="#FDE1A7"/>
</linearGradient>
<linearGradient id="paint75_linear_41_2898" x1="187.065" y1="454.125" x2="210.953" y2="454.125" gradientUnits="userSpaceOnUse">
<stop stop-color="white"/>
<stop offset="1" stop-color="#FDE1A7"/>
</linearGradient>
</defs>
</svg>
