<svg width="80" height="80" viewBox="0 0 80 80" fill="none" xmlns="http://www.w3.org/2000/svg">
<g clip-path="url(#clip0_41_3162)">
<path fill-rule="evenodd" clip-rule="evenodd" d="M60.318 30.9383C60.318 47.1621 47.166 60.3141 30.9422 60.3141C14.7184 60.3141 1.56641 47.1621 1.56641 30.9383C1.56641 14.7145 14.7184 1.5625 30.9422 1.5625C47.166 1.5625 60.318 14.7145 60.318 30.9383ZM52.5911 30.9381C52.5911 42.8946 42.8985 52.5872 30.942 52.5872C18.9856 52.5872 9.29297 42.8946 9.29297 30.9381C9.29297 18.9817 18.9856 9.28906 30.942 9.28906C42.8985 9.28906 52.5911 18.9817 52.5911 30.9381Z" fill="#FA541C" fill-opacity="0.16"/>
<path d="M73.575 77.5868L77.5808 73.581C78.7172 72.4447 78.7172 70.6025 77.5808 69.4663L62.0286 53.9141L53.9081 62.0346L69.4603 77.5868C70.5964 78.723 72.4387 78.723 73.575 77.5868Z" fill="#FA541C" fill-opacity="0.16"/>
<path d="M78.6872 68.3619L63.135 52.8097C62.5247 52.1995 61.5356 52.1995 60.9252 52.8097L60.2403 53.4945L55.9252 49.1794C58.443 45.7317 60.2445 41.7816 61.1627 37.5942C61.3477 36.7513 60.8142 35.9181 59.9713 35.7333C59.1278 35.5491 58.295 36.0819 58.1103 36.9248C55.3367 49.572 43.9113 58.7514 30.9428 58.7514C15.6066 58.7514 3.12955 46.2744 3.12955 30.9381C3.12955 15.6019 15.6064 3.12516 30.9427 3.12516C44.2858 3.12516 55.7767 12.623 58.2652 25.7087C58.4264 26.5564 59.2441 27.1131 60.0921 26.9519C60.9399 26.7906 61.4963 25.9727 61.3352 25.125C58.5666 10.5666 45.7845 0 30.9427 0C13.8831 0 0.00439453 13.8787 0.00439453 30.9383C0.00439453 47.9978 13.8831 61.8766 30.9427 61.8766C37.495 61.8766 43.9074 59.775 49.1761 55.932L53.4895 60.2455L52.8047 60.9303C52.1946 61.5405 52.1946 62.5298 52.8047 63.1402L68.3569 78.6923C69.2288 79.5641 70.3739 80 71.5192 80C72.6642 80 73.8094 79.5641 74.6814 78.6923L78.6874 74.6864C80.4306 72.9428 80.4306 70.1056 78.6872 68.3619ZM51.6164 53.9528C52.4356 53.2156 53.2131 52.4367 53.9461 51.6203L58.0305 55.7047L55.6994 58.0358L51.6164 53.9528ZM76.4772 72.4767L72.4713 76.4827C71.946 77.008 71.0916 77.0077 70.5666 76.4827L56.1194 62.0355L62.03 56.1247L76.4772 70.5717C77.0024 71.097 77.0024 71.9516 76.4772 72.4767Z" fill="#FA541C"/>
<path d="M58.7567 30.9384L58.7564 31.0495C58.7531 31.9124 59.4498 32.6148 60.3128 32.618C60.315 32.618 60.3169 32.618 60.3191 32.618C61.1791 32.618 61.8781 31.9224 61.8814 31.0616L61.8817 30.9382C61.8817 30.0752 61.182 29.3757 60.3192 29.3757C59.4564 29.3757 58.7567 30.0754 58.7567 30.9384Z" fill="#FA541C"/>
<path d="M20.4156 33.9369V25.6251H22.1753C23.0381 25.6251 23.7378 24.9255 23.7378 24.0626C23.7378 23.1996 23.0381 22.5001 22.1753 22.5001H15.5308C14.668 22.5001 13.9683 23.1996 13.9683 24.0626C13.9683 24.9255 14.668 25.6251 15.5308 25.6251H17.2905V33.9369C17.2905 34.9072 16.5011 35.6966 15.5308 35.6966C14.5605 35.6966 13.7711 34.9072 13.7711 33.9369C13.7711 33.074 13.0714 32.3744 12.2086 32.3744C11.3458 32.3744 10.6461 33.074 10.6461 33.9369C10.6461 36.6304 12.8374 38.8218 15.531 38.8218C18.2245 38.8218 20.4156 36.6304 20.4156 33.9369Z" fill="#FA541C"/>
<path d="M23.178 30.6615C23.178 35.1615 26.8391 38.8224 31.339 38.8224C35.8388 38.8224 39.4999 35.1613 39.4999 30.6615C39.4999 26.1616 35.8386 22.5007 31.3388 22.5007C26.839 22.5007 23.178 26.1615 23.178 30.6615ZM36.3747 30.6615C36.3747 33.4382 34.1157 35.6974 31.3388 35.6974C28.5619 35.6974 26.3029 33.4384 26.3029 30.6615C26.3029 27.8846 28.5619 25.6257 31.3388 25.6257C34.1157 25.6257 36.3747 27.8849 36.3747 30.6615Z" fill="#FA541C"/>
<path d="M46.2388 22.5007H43.0317C42.1689 22.5007 41.4692 23.2002 41.4692 24.0632V37.8135C41.4692 38.6765 42.1689 39.376 43.0317 39.376H46.2386C48.9957 39.376 51.2388 37.133 51.2388 34.3759C51.2388 33.0451 50.7152 31.8352 49.8646 30.9382C50.7152 30.0413 51.2388 28.8315 51.2388 27.5005C51.2389 24.7437 48.9958 22.5007 46.2388 22.5007ZM44.5944 25.6257H46.2386C47.2725 25.6257 48.1136 26.4668 48.1136 27.5007C48.1136 28.5346 47.2725 29.3757 46.2386 29.3757H44.5944V25.6257ZM46.2388 36.251H44.5944V32.5009H46.2386C47.2725 32.5009 48.1136 33.342 48.1136 34.3759C48.1136 35.4098 47.2727 36.251 46.2388 36.251Z" fill="#FA541C"/>
<path d="M46.1772 17.2666C46.5772 17.2666 46.9769 17.114 47.282 16.809C47.8922 16.1988 47.8922 15.2095 47.282 14.5993C38.2725 5.59023 23.6131 5.59023 14.6036 14.5993C13.9934 15.2095 13.9934 16.1988 14.6036 16.809C15.2137 17.4193 16.2028 17.4193 16.8134 16.809C24.6044 9.0182 37.2811 9.0182 45.0723 16.809C45.3775 17.1141 45.7773 17.2666 46.1772 17.2666Z" fill="#FA541C"/>
<path d="M14.6029 45.068C13.9928 45.6781 13.9928 46.6675 14.6029 47.2778L14.6173 47.292L14.6245 47.2991C14.9301 47.6064 15.3318 47.7603 15.7339 47.7603C16.1317 47.7603 16.5298 47.6094 16.8342 47.3072C17.4464 46.6995 17.4511 45.7116 16.8439 45.0991L16.8129 45.068C16.2023 44.4578 15.2133 44.4578 14.6029 45.068Z" fill="#FA541C"/>
<path d="M19.4801 51.0083C23.0468 53.0481 26.9912 54.0409 30.912 54.0409C36.9029 54.0409 42.8379 51.7225 47.2826 47.2781C47.8928 46.668 47.8928 45.6786 47.2826 45.0683C46.6724 44.4583 45.6834 44.4581 45.0728 45.0683C38.7137 51.4273 28.8274 52.7542 21.0318 48.2956C20.2826 47.8672 19.3282 48.127 18.8996 48.8762C18.471 49.6253 18.731 50.5798 19.4801 51.0083Z" fill="#FA541C"/>
</g>
<defs>
<clipPath id="clip0_41_3162">
<rect width="80" height="80" fill="white"/>
</clipPath>
</defs>
</svg>
