<svg width="80" height="80" viewBox="0 0 80 80" fill="none" xmlns="http://www.w3.org/2000/svg">
<g clip-path="url(#clip0_41_3158)">
<path d="M63.944 6.20794H16.0537C12.0537 6.20794 8.43102 7.82981 5.80867 10.4522C3.18633 13.0745 1.56445 16.6972 1.56445 20.6972C1.56445 28.7003 8.05211 35.1864 16.0537 35.1864H63.944C67.944 35.1864 71.5666 33.5645 74.189 30.9437C76.8113 28.3214 78.4332 24.6987 78.4332 20.6972C78.4332 12.6956 71.9455 6.20794 63.944 6.20794Z" fill="#FA541C" fill-opacity="0.16"/>
<path d="M51.1902 43.883H51.0596C49.77 43.883 48.6613 44.6448 48.1502 45.7412V44.8346C48.1502 43.1541 46.6525 41.7918 44.8052 41.7918C43.3054 41.7918 42.0361 42.6898 41.6118 43.927C41.1899 42.6898 39.9285 41.7918 38.4377 41.7918C37.2872 41.7918 36.2735 42.3268 35.6766 43.1396V35.7754C35.6766 34.0151 34.2496 32.5882 32.4894 32.5882C30.7291 32.5882 29.3022 34.0152 29.3022 35.7754V54.7179L26.4047 51.8952C25.0916 50.616 22.9975 50.6196 21.6888 51.9032L21.6288 51.962C20.2972 53.2679 20.3475 55.2657 21.4446 56.7535C24.6891 61.1541 29.4933 67.8284 29.4933 67.8284V72.4134C29.4933 73.1763 30.1119 73.7949 30.8749 73.7949H47.8482C48.6111 73.7949 49.2297 73.1763 49.2297 72.4134V69.0204C52.5568 65.3799 54.4016 60.6266 54.4016 55.6949V47.0943C54.4016 45.3209 52.9638 43.883 51.1902 43.883Z" fill="#FA541C" fill-opacity="0.16"/>
<path d="M37.9728 27.4574C38.8374 27.4574 39.5384 26.7564 39.5384 25.8917V20.0136L44.0554 26.5545C44.5076 27.2077 45.2649 27.4842 45.9846 27.2594C46.7174 27.0305 47.191 26.3492 47.191 25.5238V14.9711C47.191 14.1064 46.4901 13.4055 45.6254 13.4055C44.7607 13.4055 44.0598 14.1064 44.0598 14.9711V21.0508L39.2609 14.1019C38.8715 13.5383 38.1609 13.2931 37.5067 13.4969C36.8526 13.7008 36.407 14.3064 36.407 14.9916V25.8919C36.4071 26.7566 37.1081 27.4574 37.9728 27.4574Z" fill="#FA541C"/>
<path d="M18.055 14.9711V25.8917C18.055 26.7564 18.7559 27.4574 19.6206 27.4574C20.4853 27.4574 21.1862 26.7564 21.1862 25.8917V14.9711C21.1862 14.1064 20.4853 13.4055 19.6206 13.4055C18.7559 13.4056 18.055 14.1066 18.055 14.9711Z" fill="#FA541C"/>
<path d="M30.572 18.8676C29.7073 18.8676 29.0063 19.5686 29.0063 20.4333C29.0063 21.298 29.7073 21.9989 30.572 21.9989H32.076C31.5982 23.6878 30.329 24.3281 29.1251 24.3281C26.9774 24.3281 25.2302 22.5809 25.2302 20.4333C25.2302 18.2856 26.9774 16.5384 29.1251 16.5384C29.9059 16.5384 30.6584 16.7681 31.3016 17.2026C32.018 17.6867 32.9913 17.4983 33.4752 16.7819C33.9593 16.0655 33.7709 15.0922 33.0545 14.6083C31.8916 13.8226 30.5329 13.4075 29.1251 13.4075C25.2509 13.4075 22.0991 16.5594 22.0991 20.4334C22.0991 24.3075 25.251 27.4594 29.1251 27.4594C32.8221 27.4594 35.4043 24.5701 35.4043 20.4334C35.4043 19.5687 34.7034 18.8678 33.8387 18.8678L30.572 18.8676Z" fill="#FA541C"/>
<path d="M12.0593 24.326C11.0294 24.326 10.0405 23.913 9.41363 23.2214C8.83285 22.5807 7.84285 22.5322 7.20222 23.1127C6.5616 23.6933 6.51285 24.6833 7.09347 25.3241C8.32207 26.6797 10.1319 27.4572 12.0591 27.4572C14.4578 27.4572 16.4735 25.9191 16.8518 23.7999C17.138 22.1974 16.4205 20.1075 13.5493 19.0485C12.2422 18.5663 11.0228 18.0421 10.6133 17.8632C10.4227 17.6961 10.4197 17.4766 10.4375 17.3528C10.4597 17.1981 10.5752 16.8192 11.1655 16.6414C12.5941 16.2108 13.9394 17.2624 13.9863 17.2996C14.6482 17.8475 15.6293 17.7596 16.1828 17.1008C16.7393 16.4389 16.6536 15.4514 15.9918 14.895C15.8852 14.8055 13.3477 12.7133 10.2624 13.6433C8.67925 14.1202 7.55879 15.3711 7.33816 16.9078C7.13051 18.3546 7.75785 19.7464 8.97535 20.5403C9.04457 20.5855 9.11722 20.625 9.19269 20.6586C9.25613 20.6871 10.7658 21.3589 12.4658 21.986C12.8024 22.1102 13.8913 22.5682 13.7696 23.2494C13.6772 23.7671 12.9969 24.326 12.0593 24.326Z" fill="#FA541C"/>
<path d="M52.7722 13.4056C51.9075 13.4056 51.2066 14.1066 51.2066 14.9713V22.486C51.2066 24.2067 52.0261 25.603 53.6425 26.6355C54.4941 27.1795 55.4543 27.4561 56.4963 27.4575H56.5049C57.4007 27.4575 58.2425 27.2624 59.0066 26.8775C60.8893 25.9294 61.9261 24.367 61.9261 22.478V14.9711C61.9261 14.1064 61.2252 13.4055 60.3605 13.4055C59.4958 13.4055 58.7949 14.1064 58.7949 14.9711V22.4778C58.7949 22.9724 58.6527 23.5497 57.598 24.0808C57.2702 24.2459 56.9125 24.3263 56.5046 24.3263H56.5004C56.0577 24.3256 55.6743 24.218 55.3282 23.9967C54.5033 23.4699 54.3375 23.0278 54.3375 22.4858V14.9711C54.3377 14.1066 53.6368 13.4056 52.7722 13.4056Z" fill="#FA541C"/>
<path d="M66.5196 26.0563V22.8647H67.9949C70.5908 22.8647 72.7027 20.7799 72.7027 18.2174C72.7027 15.6547 70.5908 13.5699 67.9949 13.5699H64.9541C64.0894 13.5699 63.3885 14.2708 63.3885 15.1355V26.0563C63.3885 26.921 64.0894 27.6219 64.9541 27.6219C65.8188 27.6219 66.5196 26.921 66.5196 26.0563ZM66.5196 16.7011H67.9949C68.8496 16.7011 69.5716 17.3955 69.5716 18.2174C69.5716 19.0393 68.8496 19.7336 67.995 19.7336H66.5197L66.5196 16.7011Z" fill="#FA541C"/>
<path d="M63.7675 4.643H47.0675C46.2827 4.643 45.5813 5.19972 45.4697 5.97643C45.3308 6.94409 46.0777 7.77409 47.0186 7.77409H63.7784C70.7269 7.77409 76.7088 13.4528 76.8642 20.3996C76.9439 23.9632 75.5933 27.326 73.0822 29.8371C70.6403 32.2774 67.3948 33.6214 63.9439 33.6214H36.7238C35.9369 32.0805 34.3345 31.0224 32.4889 31.0224C30.6433 31.0224 29.0411 32.0805 28.2542 33.6214H16.2189C9.27219 33.6214 3.29016 27.9441 3.13313 20.9991C3.0525 17.4355 4.40312 14.0719 6.91547 11.5599C9.35672 9.11862 12.6019 7.77425 16.0534 7.77425H32.9314C33.7163 7.77425 34.4177 7.21753 34.5292 6.44081C34.6681 5.47315 33.9212 4.64315 32.9803 4.64315H16.0533C11.7655 4.64315 7.73391 6.31331 4.70125 9.34581C1.54516 12.5021 -0.135312 16.74 0.00687502 21.223C0.282344 29.9111 7.53734 36.7525 16.2298 36.7525H27.7359L27.7361 51.0066V51.0066L27.4966 50.7735C25.5945 48.9207 22.4875 48.926 20.5919 50.7853L20.532 50.8439C18.7195 52.6216 18.5731 55.4975 20.1839 57.6824C22.9263 61.4018 26.8322 66.8141 27.9272 68.3333V72.413C27.9272 74.0408 29.2467 75.3603 30.8745 75.3603H47.8475C49.4752 75.3603 50.7947 74.0408 50.7947 72.4132V69.6149C54.1345 65.743 55.9666 60.8244 55.9666 55.695V47.0947C55.9666 44.4564 53.8278 42.3175 51.1894 42.3175H51.0589C50.3002 42.3175 49.5825 42.4961 48.9447 42.8124C48.1942 41.2824 46.6206 40.2261 44.8045 40.2261C43.6391 40.2261 42.5741 40.6617 41.7617 41.3778C40.9494 40.6619 39.8842 40.2261 38.7188 40.2261C38.2022 40.2261 37.7056 40.3128 37.2416 40.4703L37.2414 36.7527L63.9439 36.7525C68.2309 36.7525 72.2623 35.0832 75.2959 32.0513C78.4514 28.8958 80.1317 24.6582 79.9905 20.175C79.7162 11.486 72.4609 4.643 63.7675 4.643ZM37.2419 44.8344C37.2419 43.9467 38.0291 43.2392 38.9419 43.3735C39.6734 43.481 40.1964 44.1425 40.1964 44.8821V49.3547C40.1964 50.0253 40.6161 50.6399 41.2559 50.841C42.3355 51.1803 43.3277 50.3835 43.3277 49.3547V44.8822C43.3277 44.1427 43.8506 43.4811 44.5822 43.3736C45.4952 43.2394 46.2823 43.9469 46.2823 44.8346V49.3058C46.2823 50.0905 46.8389 50.7919 47.6156 50.9036C48.5833 51.0428 49.4134 50.2957 49.4134 49.3549V47.0944C49.4134 46.1853 50.1503 45.4485 51.0594 45.4485H51.1898C52.0989 45.4485 52.8358 46.1853 52.8358 47.0944V56.3407C52.8358 60.6902 51.0069 64.7528 48.0734 67.9644C47.81 68.2528 47.6639 68.6296 47.6639 69.0202V72.2289L31.0586 72.2291L31.0584 67.828C31.0584 67.4997 30.9553 67.1797 30.7636 66.9135C30.7155 66.8466 25.9169 60.1814 22.7042 55.8241C22.1239 55.0369 21.9052 53.883 22.7247 53.0792L22.7845 53.0205C23.478 52.3396 24.6148 52.3372 25.3111 53.0153L28.1798 55.8099C28.5403 56.1611 29.0438 56.3455 29.5408 56.2655C30.3252 56.1392 30.8677 55.4724 30.8677 54.7174V35.8186C30.8677 35.0197 31.4272 34.3057 32.2155 34.1758C33.23 34.0088 34.1111 34.791 34.1111 35.7749V49.3055C34.1111 50.0903 34.6678 50.7918 35.4445 50.9033C36.4122 51.0422 37.2422 50.2953 37.2422 49.3544L37.2419 44.8344Z" fill="#FA541C"/>
<path d="M39.9989 7.77122C40.8619 7.77122 41.5614 7.07167 41.5614 6.20872C41.5614 5.34578 40.8619 4.64622 39.9989 4.64622C39.136 4.64622 38.4364 5.34578 38.4364 6.20872C38.4364 7.07167 39.136 7.77122 39.9989 7.77122Z" fill="#FA541C"/>
</g>
<defs>
<clipPath id="clip0_41_3158">
<rect width="80" height="80" fill="white"/>
</clipPath>
</defs>
</svg>
